<svg xmlns="http://www.w3.org/2000/svg" viewBox="0 0 500 500"><g id="freepik--background-complete--inject-4"><path d="M176.4,371.7A32.12,32.12,0,0,0,162.66,367c-2.24-.23-4.69-.16-6.49,1.19a1.34,1.34,0,0,0-.67,1.19,1.4,1.4,0,0,0,.63.81c5.59,4.27,14,4.8,20.27,1.54" style="fill:#e0e0e0"></path><path d="M176,371.31a67.92,67.92,0,0,1-8.87-7.81,22.48,22.48,0,0,1-5.56-10.28,4.15,4.15,0,0,1,.44-3.44c7.07,5.52,12.63,12.66,14,21.53" style="fill:#e0e0e0"></path><path d="M176.32,371.64a32.06,32.06,0,0,1,.17-11.64,15.74,15.74,0,0,1,6.2-9.61c1.22,2.85.7,6.14-.16,9.13a44.55,44.55,0,0,1-6.15,13" style="fill:#e0e0e0"></path><path d="M183.26,384.06a20.33,20.33,0,0,0-11,5.58,20.87,20.87,0,0,0-6.3,10.81c4.13-.25,7.63-3.16,10.17-6.43s4.3-6.84,7.09-9.89" style="fill:#e0e0e0"></path><path d="M184.76,386.05a27.14,27.14,0,0,1,3.14-25.69c2.39,8.52,1.51,18.15-3.14,25.69" style="fill:#e0e0e0"></path><path d="M193.92,397a19.63,19.63,0,0,0-18.78,10.81,1.43,1.43,0,0,0-.13,1.47,1.41,1.41,0,0,0,1.25.37c3.7-.24,7-2.47,9.69-5s5.06-5.46,8.05-7.66" style="fill:#e0e0e0"></path><path d="M193.63,396.36a34.92,34.92,0,0,1-.35-19.54c.69-2.51,1.84-5.16,4.17-6.34a.82.82,0,0,1,.64-.11.83.83,0,0,1,.4.46,11.71,11.71,0,0,1,1,5.61,34.39,34.39,0,0,1-.88,5.68c-.73,3.46-1.12,7.19-3,10.18a21,21,0,0,0-1.21,2.24c-.36.76-.36,1-.69,1.63" style="fill:#e0e0e0"></path><path d="M217.87,400c-1.8-6.83.11-15.11,4.41-20.71.32-.41.74-.86,1.26-.81.79.08,1,1.13,1,1.93A37.41,37.41,0,0,1,217.87,400" style="fill:#e0e0e0"></path><path d="M220.05,401.47a30.13,30.13,0,0,0,24.73-5,20,20,0,0,0-13.38-1.64c-4.48,1-8.56,3-11.35,6.67" style="fill:#e0e0e0"></path><path d="M221.9,396.92c4.65-7.58,13.56-12.53,22.44-13-1,3.61-4,6.42-7.34,8.12a41.19,41.19,0,0,1-10.77,3.15c-1.44.28-3.4.58-4.33,1.71" style="fill:#e0e0e0"></path><path d="M218.33,374.85a64.9,64.9,0,0,0,2.87-13.15,21.82,21.82,0,0,0-2.62-13c-4.34,8.41-4.78,18.22-.38,26.6" style="fill:#e0e0e0"></path><path d="M233,367.46c5.08-9.23,15.44-16.6,25.92-17.64-4,10.07-15.07,17.85-25.92,17.64" style="fill:#e0e0e0"></path><path d="M229.76,369.26c7.57,1.16,14,6,21.1,8.93a9.54,9.54,0,0,0,4.77.91,4.14,4.14,0,0,0,3.59-2.9,4.18,4.18,0,0,0-1.25-3.71,10.31,10.31,0,0,0-3.47-2.1c-7.71-3.21-16-3.29-24.09-1.34" style="fill:#e0e0e0"></path><path d="M225.37,374.58c1.72.49,2.3,1.38,3.66,2.53a39.54,39.54,0,0,0,16,8.22c.62.15,1.42.21,1.72-.34s-.07-1.06-.41-1.49a22,22,0,0,0-9.67-6.56c-3.69-1.38-6.89-3-11.3-2.68" style="fill:#e0e0e0"></path><path d="M220.43,342.5a30.32,30.32,0,0,0,23.22,7.9,1.61,1.61,0,0,0,1-.38c.59-.64-.11-1.62-.79-2.15-6.83-5.32-15.1-7.53-23.48-5.37" style="fill:#e0e0e0"></path><path d="M226.29,340.35a32.38,32.38,0,0,1,29-4.78,23,23,0,0,1-13.8,6.06,43.62,43.62,0,0,1-15.17-1.28" style="fill:#e0e0e0"></path><path d="M224,325.61c-.67-6.81-.23-12.19-.71-19,0-.55-.15-1.2-.66-1.4-.72-.28-1.31.6-1.54,1.33a21.83,21.83,0,0,0,2.9,19" style="fill:#e0e0e0"></path><path d="M223.47,326.36a40,40,0,0,0,11.29-11c2.23-3.05,4.11-6.7,3.6-10.45a10.8,10.8,0,0,0-8.14,4.05,22.59,22.59,0,0,0-4.15,8.35c-.91,3-1.54,6.08-2.6,9" style="fill:#e0e0e0"></path><path d="M234.56,323.28a91.08,91.08,0,0,0,27.78-16.38c-3.32-1.33-7.12-.53-10.44.8a32.93,32.93,0,0,0-17.49,15.51" style="fill:#e0e0e0"></path><path d="M226.59,330.09a56.48,56.48,0,0,0,15.42.07c5-.83,9.73-2.81,14.4-4.78a1.69,1.69,0,0,0,1-.74,1.12,1.12,0,0,0-.35-1.23,2.91,2.91,0,0,0-1.23-.58c-5.08-1.42-10.56-.76-15.56.93a71.74,71.74,0,0,0-13.66,6.33" style="fill:#e0e0e0"></path><path d="M197.31,342.73c-3.5-7.06-3.27-15.3-.25-22.58,2.13,3.24,2.39,7.37,2,11.23s-1.56,7.82-1.64,11.7" style="fill:#e0e0e0"></path><path d="M183.34,335.68a31.5,31.5,0,0,0-23.41,10,21.9,21.9,0,0,0,12.82-2.38,64.73,64.73,0,0,0,11-7.35" style="fill:#e0e0e0"></path><path d="M173.94,332.54c-4.27-.35-8.38-.88-12.49.38a15,15,0,0,0-9.52,8.08,22.6,22.6,0,0,0,11.71-2.22,68.07,68.07,0,0,0,10.3-6.24" style="fill:#e0e0e0"></path><path d="M187.85,332.68c-3.84-2.52-7.79-5.08-12.27-6.12s-9.66-.28-12.78,3.1c3.62,2.12,8,2.37,12.22,2.37s9.35,0,13.31,1.35" style="fill:#e0e0e0"></path><path d="M187.87,332.89c-6.57-6.46-9.06-18.05-6.41-26.87a41,41,0,0,1,6.41,26.87" style="fill:#e0e0e0"></path><path d="M205.94,314.6c1.24-2.88,2.11-5.9,3.23-8.84a25.37,25.37,0,0,1,4.59-8.14,12.08,12.08,0,0,1,8.14-4.22,32.78,32.78,0,0,1-15.8,21.25" style="fill:#e0e0e0"></path><path d="M202.67,318.41c-2-2.82-4.42-6.65-7.2-8.76s-6.4-3.38-9.79-2.57a22.79,22.79,0,0,0,17,11.33" style="fill:#e0e0e0"></path><path d="M203.33,314.84a48.31,48.31,0,0,1-3.24-10.5,16.33,16.33,0,0,1,1.64-10.68c3.61,6.82,4.77,14.14,1.78,21.25" style="fill:#e0e0e0"></path><path d="M206,293.66c2-6.76,8.23-11.73,14.91-14a5.5,5.5,0,0,1,2.62-.39,2.26,2.26,0,0,1,1.92,1.61c.25,1.15-.7,2.18-1.6,2.94A50.71,50.71,0,0,1,206,293.66" style="fill:#e0e0e0"></path><path d="M206.05,288.14c.26-4.36.53-8.78,1.95-12.91s4.15-8,8.12-9.81c.68,4.4-1.26,8.78-3.6,12.56s-5.17,7.37-6.58,11.59" style="fill:#e0e0e0"></path><path d="M205.94,291.14c-1.68-4.93-1.86-11.19-4.81-15.48-2.06-3-5.36-5-7.14-8.22a12.47,12.47,0,0,0,.42,9.33,26.88,26.88,0,0,0,5.45,7.81c2.19,2.34,4,4.09,6.08,6.56" style="fill:#e0e0e0"></path><path d="M206,436.21c-.13,0-.25-32.86-.26-73.39s.09-73.4.22-73.4.25,32.85.26,73.4S206.11,436.21,206,436.21Z" style="fill:#e0e0e0"></path><path d="M234.7,337.77a7.27,7.27,0,0,1-1.24.46l-3.4,1.15c-2.87,1-6.81,2.39-11.08,4.14s-8.23,3.29-10.5,5.26a7.88,7.88,0,0,0-2.11,2.79c-.32.78-.38,1.25-.43,1.24a1.16,1.16,0,0,1,0-.35,5,5,0,0,1,.24-.95,7.44,7.44,0,0,1,2.06-3,18.4,18.4,0,0,1,4.55-2.83c1.82-.85,3.84-1.73,6-2.62,4.29-1.75,8.26-3.12,11.16-4,1.44-.45,2.63-.78,3.45-1A6.79,6.79,0,0,1,234.7,337.77Z" style="fill:#e0e0e0"></path><path d="M244.11,314.65a2.17,2.17,0,0,1-.35.37l-1,1-3.94,3.57-13.1,11.67c-5.12,4.55-9.54,8.9-12.6,12.18-1.53,1.64-2.74,3-3.57,3.94l-.95,1.08a2.07,2.07,0,0,1-.35.36s.08-.15.28-.42.49-.65.88-1.14c.78-1,2-2.38,3.46-4.05a167.56,167.56,0,0,1,12.53-12.3c5.13-4.55,9.8-8.63,13.2-11.57l4-3.46,1.11-.92A2.2,2.2,0,0,1,244.11,314.65Z" style="fill:#e0e0e0"></path><path d="M220.15,335.88c-.14-.06.93-2.53,2-5.65s1.58-5.75,1.71-5.73a19.18,19.18,0,0,1-1.26,5.89,39.24,39.24,0,0,1-1.6,3.95A6.32,6.32,0,0,1,220.15,335.88Z" style="fill:#e0e0e0"></path><path d="M206,355.77a5.65,5.65,0,0,1-.79-.91l-2-2.59c-1.7-2.19-4-5.22-6.67-8.53s-5-6.29-6.79-8.44l-2.07-2.55a6.75,6.75,0,0,1-.71-1,5.23,5.23,0,0,1,.85.85c.53.57,1.27,1.41,2.18,2.46,1.82,2.09,4.28,5,6.91,8.35s4.94,6.38,6.57,8.63c.81,1.12,1.46,2,1.9,2.68A7.25,7.25,0,0,1,206,355.77Z" style="fill:#e0e0e0"></path><path d="M199.71,347.69a11.56,11.56,0,0,1-2.64-4.94,14.12,14.12,0,0,1-.6-5l.21,0c-.09.38-.16.58-.2.57s0-.22,0-.61l.2,0a23,23,0,0,0,.85,4.84A37.38,37.38,0,0,0,199.71,347.69Z" style="fill:#e0e0e0"></path><path d="M191.58,337.46a8.92,8.92,0,0,0-1.84-1.07,12.32,12.32,0,0,0-5.11-.4,30.44,30.44,0,0,0-5.15.83,14.57,14.57,0,0,1-2.12.5,7.61,7.61,0,0,1,2-.83,23.75,23.75,0,0,1,5.2-1,11.08,11.08,0,0,1,5.27.57A3.3,3.3,0,0,1,191.58,337.46Z" style="fill:#e0e0e0"></path><path d="M189.65,335c0,.08-1.07-.43-2.82-1a28.46,28.46,0,0,0-14.22-1.09c-1.82.33-2.92.67-2.94.59a2.74,2.74,0,0,1,.75-.32,18.25,18.25,0,0,1,2.13-.6,25.06,25.06,0,0,1,14.4,1.1,17.44,17.44,0,0,1,2,.91C189.42,334.8,189.67,335,189.65,335Z" style="fill:#e0e0e0"></path><path d="M205.94,324.5a60.75,60.75,0,0,1-2.05-7.14,58.42,58.42,0,0,1-1.6-7.27,57.93,57.93,0,0,1,2.06,7.15A56.88,56.88,0,0,1,205.94,324.5Z" style="fill:#e0e0e0"></path><path d="M206.07,324.5a34.2,34.2,0,0,0-2.28-4.28,18.69,18.69,0,0,0-3.35-3.46,3.06,3.06,0,0,1,1.29.67,10.36,10.36,0,0,1,2.45,2.52A9.4,9.4,0,0,1,206.07,324.5Z" style="fill:#e0e0e0"></path><path d="M206,418.69s-.15-.79-.52-2.18a31.27,31.27,0,0,0-2.2-5.69,78.65,78.65,0,0,0-11.65-16.42c-2.6-3-5.12-5.77-7.27-8.46a59,59,0,0,1-5.19-7.49,36.18,36.18,0,0,1-2.63-5.57c-.24-.68-.41-1.22-.51-1.59a2.9,2.9,0,0,1-.14-.56s.28.75.83,2.09a40.39,40.39,0,0,0,2.74,5.46,63.28,63.28,0,0,0,5.24,7.39c2.16,2.65,4.68,5.44,7.29,8.42,5.26,5.91,9.38,11.86,11.6,16.58a28.77,28.77,0,0,1,2.07,5.79c.15.71.25,1.27.29,1.65A3.15,3.15,0,0,1,206,418.69Z" style="fill:#e0e0e0"></path><path d="M231.93,389.38a10.67,10.67,0,0,1-1.36.76,29.91,29.91,0,0,0-3.53,2.34,40.22,40.22,0,0,0-4.63,4.22c-1.63,1.72-3.3,3.71-5,5.85-3.42,4.29-6.62,8.09-8.53,11.11-1,1.51-1.68,2.77-2.14,3.66a12.21,12.21,0,0,1-.75,1.37s0-.14.12-.38.24-.62.46-1.07a33.48,33.48,0,0,1,2-3.75A121.42,121.42,0,0,1,217,402.25c1.71-2.14,3.4-4.14,5.06-5.85a37.54,37.54,0,0,1,4.75-4.19,24.38,24.38,0,0,1,3.64-2.23c.45-.23.82-.37,1.06-.47A1.53,1.53,0,0,1,231.93,389.38Z" style="fill:#e0e0e0"></path><path d="M232.44,398.89a20.57,20.57,0,0,1-2.88.42,38,38,0,0,0-6.82,1.34,20.49,20.49,0,0,0-6.1,3.2c-1.41,1.09-2.07,2-2.14,1.94a2.34,2.34,0,0,1,.43-.66,10.84,10.84,0,0,1,1.5-1.54,18.5,18.5,0,0,1,6.17-3.39,30.88,30.88,0,0,1,6.93-1.23A15.84,15.84,0,0,1,232.44,398.89Z" style="fill:#e0e0e0"></path><path d="M215.34,404.74c-.15-.08,1.15-2.06,2.15-4.72s1.17-5,1.34-5a4.93,4.93,0,0,1-.05,1.55,15.73,15.73,0,0,1-2.51,7C215.76,404.31,215.4,404.78,215.34,404.74Z" style="fill:#e0e0e0"></path><path d="M240.33,363.85a1.81,1.81,0,0,1-.46.25l-1.35.61c-.59.25-1.31.58-2.12,1s-1.76.85-2.74,1.45l-1.57.89c-.55.31-1.08.68-1.66,1-1.15.7-2.31,1.56-3.55,2.45a60.43,60.43,0,0,0-13.67,14.15c-.84,1.26-1.66,2.45-2.33,3.63-.33.58-.69,1.13-1,1.69l-.84,1.6c-.56,1-1,2-1.35,2.79s-.69,1.55-.93,2.15l-.56,1.37a2.41,2.41,0,0,1-.23.47,1.75,1.75,0,0,1,.14-.5c.12-.37.28-.84.48-1.4a23.62,23.62,0,0,1,.86-2.2c.37-.84.75-1.81,1.29-2.84l.82-1.62c.28-.56.63-1.12,1-1.71.66-1.2,1.47-2.4,2.31-3.68a58.55,58.55,0,0,1,13.77-14.26c1.25-.87,2.43-1.73,3.6-2.42.58-.36,1.13-.72,1.68-1l1.59-.87c1-.58,2-1,2.8-1.39s1.55-.7,2.16-.93l1.39-.53A2.74,2.74,0,0,1,240.33,363.85Z" style="fill:#e0e0e0"></path><path d="M219.79,377.61a3.39,3.39,0,0,1,1.13-1.68,7.12,7.12,0,0,1,4.55-1.75,12.49,12.49,0,0,1,4.79.94,6.64,6.64,0,0,1,1.81.88,10.5,10.5,0,0,1-1.92-.56,14.42,14.42,0,0,0-4.66-.78,7.45,7.45,0,0,0-4.35,1.52A14.86,14.86,0,0,0,219.79,377.61Z" style="fill:#e0e0e0"></path><path d="M216.72,380.78a17.15,17.15,0,0,0,1.3-4.2,17.64,17.64,0,0,0-.29-4.39,2.76,2.76,0,0,1,.53,1.22,8.85,8.85,0,0,1,.23,3.22,8.61,8.61,0,0,1-1,3.08C217.12,380.44,216.77,380.81,216.72,380.78Z" style="fill:#e0e0e0"></path><path d="M183.28,423.4c.71,12.56,4.49,25.33,10.31,38.25h25.32c5.55-12.79,9.07-25.54,9.7-38.25Z" style="fill:#e0e0e0"></path><path d="M224.51,443.72c0,.13-8.34.24-18.62.24s-18.61-.11-18.61-.24,8.33-.23,18.61-.23S224.51,443.59,224.51,443.72Z" style="fill:#fafafa"></path><path d="M223.94,448.27c0,.13-7.81.24-17.45.24S189,448.4,189,448.27s7.81-.23,17.45-.23S223.94,448.14,223.94,448.27Z" style="fill:#fafafa"></path><path d="M194,431.65a70.93,70.93,0,0,1,0,11.66,70.93,70.93,0,0,1,0-11.66Z" style="fill:#fafafa"></path><path d="M207.56,431.65a76,76,0,0,1,0,12.07,79.29,79.29,0,0,1,0-12.07Z" style="fill:#fafafa"></path><path d="M220.3,431.54a82.61,82.61,0,0,1,0,12.32,79.17,79.17,0,0,1,0-12.32Z" style="fill:#fafafa"></path><path d="M227.8,431.65c0,.13-9.77.23-21.83.23s-21.83-.1-21.83-.23,9.77-.24,21.83-.24S227.8,431.52,227.8,431.65Z" style="fill:#fafafa"></path><rect x="210.77" y="44.58" width="95.5" height="158.08" style="fill:#e0e0e0"></rect><rect x="207.6" y="44.58" width="95.5" height="158.08" style="fill:#ebebeb"></rect><rect x="211.66" y="47.78" width="87.37" height="151.67" style="fill:#fafafa"></rect><rect x="228.3" y="67.49" width="53.72" height="112.25" style="fill:#ebebeb"></rect><path d="M228.3,140c-.13-10.49,9.3-20.72,19.69-22.19,4.95-.69,10.21.29,14.83-1.61,8.26-3.39,10.89-14.36,19.2-17.61l.38,81.13H228.3Z" style="fill:#e0e0e0"></path></g><g id="freepik--Floor--inject-4"><path d="M468,461.59c0,.14-97.15.26-217,.26s-217-.12-217-.26,97.13-.27,217-.27S468,461.44,468,461.59Z" style="fill:#263238"></path></g><g id="freepik--Clothes--inject-4"><rect x="363.67" y="321.51" width="109.24" height="109.24" rx="9.43" style="fill:#f5f5f5"></rect><path d="M371.8,389.74s14.49-39.57,18.06-41.92,18.44-6.56,18.44-6.56l11.07,36.47,13.18-37.05s13.93,4.21,17.94,10.46,14.29,38.67,14.29,38.67l-22,8.46,2.81,13.31L390,410.85l3.36-11.41Z" style="fill:#6C3EB4"></path><g style="opacity:0.30000000000000004"><path d="M402,365.76A39,39,0,0,1,396.35,345l-5.56,2.13a42.62,42.62,0,0,0,6.5,20.94,6.65,6.65,0,0,0,2.31,2.48,2.54,2.54,0,0,0,3.12-.44C403.67,368.85,402.78,367.1,402,365.76Z"></path></g><g style="opacity:0.30000000000000004"><path d="M409,387.28A2.35,2.35,0,0,0,407,386h0a3.32,3.32,0,1,0-.06,6.56,2.57,2.57,0,0,0,1.63-.9,3.45,3.45,0,0,0,.64-1.65A4.43,4.43,0,0,0,409,387.28Z"></path></g><g style="opacity:0.30000000000000004"><path d="M443.28,400.74a23,23,0,0,1-7.47,5.62,10.5,10.5,0,0,1-9.2,0c-1.29-.72-2.55-1.83-4-1.66-1.06.12-2.09.92-3.1.56a1.81,1.81,0,0,1-1.09-1.42,3,3,0,0,1,1.62-3,5.87,5.87,0,0,1,3.56-.5c1.21.15,2.38.49,3.59.67,4.9.7,10.78-3.14,14.27-7.05l2.6-3-1.3,7.21Z"></path></g><path d="M446.68,379.39a88.1,88.1,0,0,1-1.71,9.49,91,91,0,0,1-2.21,9.39,89.83,89.83,0,0,1,1.7-9.5A91,91,0,0,1,446.68,379.39Z" style="fill:#263238"></path><path d="M445.93,347.24a2.91,2.91,0,0,1-.2.95,13.19,13.19,0,0,1-1,2.46,14.76,14.76,0,0,1-14.7,7.73,13,13,0,0,1-2.59-.55,3.05,3.05,0,0,1-.9-.38c0-.1,1.33.4,3.53.56a15.13,15.13,0,0,0,14.34-7.55C445.51,348.56,445.83,347.21,445.93,347.24Z" style="fill:#fff"></path><path d="M450.19,351a4.81,4.81,0,0,1-.46,1.06,17.18,17.18,0,0,1-1.72,2.64,19.16,19.16,0,0,1-18.6,7,16.52,16.52,0,0,1-3-.85,4.2,4.2,0,0,1-1-.49c0-.1,1.54.58,4.14,1a19.67,19.67,0,0,0,18.24-6.88C449.41,352.4,450.1,350.9,450.19,351Z" style="fill:#fff"></path><path d="M417.28,373.63a5.25,5.25,0,0,1-1.15.49c-.75.27-1.83.7-3.14,1.26A55.34,55.34,0,0,0,394.78,388c-1,1-1.77,1.88-2.29,2.49a6,6,0,0,1-.86.9,5.44,5.44,0,0,1,.7-1c.48-.65,1.22-1.55,2.18-2.62a49.89,49.89,0,0,1,8.44-7.38,48.75,48.75,0,0,1,9.9-5.28c1.34-.52,2.44-.9,3.22-1.11A6.69,6.69,0,0,1,417.28,373.63Z" style="fill:#fff"></path><path d="M416.69,369.52a5.06,5.06,0,0,1-1.14.41c-.75.23-1.82.57-3.14,1A89.17,89.17,0,0,0,402.36,375a90.7,90.7,0,0,0-9.45,5.3c-1.17.76-2.1,1.38-2.75,1.82a5.46,5.46,0,0,1-1,.63A5.67,5.67,0,0,1,390,382c.61-.5,1.52-1.17,2.66-2a70.31,70.31,0,0,1,19.6-9.41c1.34-.4,2.43-.69,3.19-.85A6.26,6.26,0,0,1,416.69,369.52Z" style="fill:#fff"></path><path d="M456.36,392.29a47.12,47.12,0,0,0-5.05-4,48.23,48.23,0,0,0-5.78-2.78,5.54,5.54,0,0,1,1.87.39,18.61,18.61,0,0,1,4.19,1.95,18.83,18.83,0,0,1,3.59,2.9A5.73,5.73,0,0,1,456.36,392.29Z" style="fill:#fff"></path><path d="M379.82,392.35a24.17,24.17,0,0,1-2.72-5.88,24.56,24.56,0,0,1-1.57-6.29c.15,0,.87,2.76,2.06,6.11S380,392.29,379.82,392.35Z" style="fill:#fff"></path><path d="M403,411.08a26.36,26.36,0,0,1-5.74-2.67,26,26,0,0,1-5.25-3.56c.08-.12,2.47,1.39,5.5,3.1S403.05,411,403,411.08Z" style="fill:#fff"></path><path d="M417.35,385.21a10.41,10.41,0,0,1-.66-1.62c-.39-1.06-.94-2.6-1.6-4.5-1.32-3.8-3.08-9.08-4.95-14.93s-3.47-11.19-4.59-15.06c-.56-1.93-1-3.5-1.29-4.59a11.82,11.82,0,0,1-.4-1.7,10.21,10.21,0,0,1,.6,1.65c.37,1.15.85,2.68,1.45,4.54,1.23,3.91,2.89,9.18,4.73,15s3.55,11.06,4.8,15c.59,1.85,1.08,3.39,1.44,4.54A13.11,13.11,0,0,1,417.35,385.21Z" style="fill:#263238"></path><path d="M422,385.38a5.53,5.53,0,0,1-2.36.27,5.66,5.66,0,0,1-2.36-.24,10.64,10.64,0,0,1,4.72,0Z" style="fill:#263238"></path><path d="M436.14,341.07c.14,0-2.89,10-6.75,22.23s-7.12,22.13-7.26,22.08,2.89-10,6.76-22.24S436,341,436.14,341.07Z" style="fill:#263238"></path><path d="M393.29,399.43c-.14,0-1.37-4.73-2.76-10.64s-2.39-10.72-2.25-10.75,1.38,4.73,2.76,10.64S393.43,399.4,393.29,399.43Z" style="fill:#263238"></path><rect x="363.67" y="192.58" width="109.24" height="109.24" rx="9.43" style="fill:#fafafa"></rect><path d="M363.67,202s0-.37,0-1.09a9.54,9.54,0,0,1,.87-3.06A9.43,9.43,0,0,1,368,194a9.26,9.26,0,0,1,3.07-1.29,17.65,17.65,0,0,1,3.77-.23l45.08-.09,31.14,0h8.53c1.45,0,2.9,0,4.38,0a9.4,9.4,0,0,1,4.33,1.26,9.66,9.66,0,0,1,4.81,7.52c.09,3.11,0,6.18,0,9.34,0,25.17,0,52.84,0,81.88a9.68,9.68,0,0,1-8.35,9.6,19.11,19.11,0,0,1-2.71.1H373.57a10,10,0,0,1-4.35-.82,9.65,9.65,0,0,1-5.45-6.43,16.14,16.14,0,0,1-.31-4.19v-4.09c0-2.7,0-5.35,0-7.95,0-5.19,0-10.18,0-14.94,0-19,.06-34.43.08-45.08,0-5.32,0-9.45.05-12.26,0-1.39,0-2.46,0-3.19s0-1.08,0-1.08,0,.37,0,1.08,0,1.8,0,3.19c0,2.81,0,6.94,0,12.26,0,10.65.05,26.05.09,45.08,0,4.76,0,9.75,0,14.94,0,2.6,0,5.25,0,7.95v4.09a15.42,15.42,0,0,0,.31,4.08,9.24,9.24,0,0,0,5.21,6.14,9.65,9.65,0,0,0,4.17.77H396.4l39.49,0h26.22a17.73,17.73,0,0,0,2.64-.1,8.83,8.83,0,0,0,2.5-.72,9.19,9.19,0,0,0,5.4-8.36c0-29,0-56.71,0-81.88,0-3.14.05-6.27,0-9.3a9.27,9.27,0,0,0-4.58-7.17,9,9,0,0,0-4.12-1.2c-1.44-.05-2.92,0-4.36,0h-8.53l-31.14,0-45.08-.08a16.72,16.72,0,0,0-3.74.21,9,9,0,0,0-3,1.24,9.31,9.31,0,0,0-3.4,3.77A10.16,10.16,0,0,0,363.67,202Z" style="fill:#6C3EB4"></path><path d="M401.19,214.91S382.23,253,382,276.32a16.31,16.31,0,0,1,4.84,0c2.31.42,3.78,3.36,6.52,3.57s3.43-1.89,5.61-2.31,1.75,2.76,4.48,2.33,2.94-3.17,5.47-2.75,1.26,2.21,5.46,2.79,5.65-2.79,8-2.16,1.48,3.19,5.06,2.23,3.36-3.28,6.09-2.86,2.41,5.09,5.83,3.07,3.29-5.59,6.3-4.54,2.38,2.73,4.69,1.47a9.72,9.72,0,0,1,4.21-1.26s-5.14-46.35-15.2-62.07l-19.72.62Z" style="fill:#263238"></path><path d="M395.71,249.06a6.39,6.39,0,0,1,.1-1.37c.1-.88.27-2.16.52-3.72.49-3.13,1.33-7.44,2.52-12.13s2.53-8.87,3.6-11.86c.53-1.49,1-2.69,1.32-3.51a7.67,7.67,0,0,1,.57-1.26,6.36,6.36,0,0,1-.38,1.33c-.3.93-.69,2.13-1.16,3.56-1,3-2.25,7.19-3.45,11.87s-2.07,8.95-2.66,12.06c-.27,1.48-.5,2.72-.68,3.69A7.37,7.37,0,0,1,395.71,249.06Z" style="fill:#455a64"></path><path d="M400.29,264.62a39.1,39.1,0,0,1,.17,6.44,39,39,0,0,1-.35,6.42,40.38,40.38,0,0,1-.17-6.43A40.64,40.64,0,0,1,400.29,264.62Z" style="fill:#455a64"></path><path d="M410.1,247.15a5.23,5.23,0,0,1-.09,1.21c-.12.88-.26,2-.42,3.28-.36,2.76-.84,6.58-1.26,10.81s-.72,8.07-.92,10.85c-.09,1.3-.17,2.41-.24,3.29a5,5,0,0,1-.15,1.21,6.21,6.21,0,0,1,0-1.22c0-.78,0-1.91.07-3.3.11-2.79.34-6.64.77-10.88s1-8.06,1.41-10.82c.23-1.37.43-2.49.59-3.25A5.43,5.43,0,0,1,410.1,247.15Z" style="fill:#455a64"></path><path d="M421,231a10.17,10.17,0,0,1-.49-2.39c-.22-1.48-.47-3.55-.65-5.83s-.26-4.36-.28-5.86a11,11,0,0,1,.1-2.43,11.28,11.28,0,0,1,.27,2.41c.12,1.69.27,3.66.43,5.84s.35,4.14.5,5.83A12.33,12.33,0,0,1,421,231Z" style="fill:#455a64"></path><path d="M424,237a29.87,29.87,0,0,1-.17-3.45c-.08-2.14-.26-5.08-.68-8.3s-1-6.12-1.49-8.2a29,29,0,0,1-.74-3.38,3.12,3.12,0,0,1,.36.87c.2.56.45,1.39.74,2.42a63,63,0,0,1,1.64,8.22,61.4,61.4,0,0,1,.54,8.36c0,1.07,0,1.94-.08,2.54A3.83,3.83,0,0,1,424,237Z" style="fill:#455a64"></path><path d="M421.91,257.25c.14,0,.43,4.6.64,10.27s.27,10.29.13,10.3a98.33,98.33,0,0,1-.65-10.28A99.69,99.69,0,0,1,421.91,257.25Z" style="fill:#455a64"></path><path d="M434.2,278a5.92,5.92,0,0,1-.2-1.32c-.11-.95-.23-2.15-.39-3.59-.31-3-.76-7.22-1.35-11.83s-1.22-8.78-1.73-11.79c-.25-1.42-.46-2.61-.63-3.55a7.67,7.67,0,0,1-.19-1.32,6.65,6.65,0,0,1,.39,1.28c.21.82.49,2,.79,3.53.61,3,1.3,7.16,1.89,11.78s1,8.82,1.2,11.87c.12,1.52.18,2.75.22,3.61A7.64,7.64,0,0,1,434.2,278Z" style="fill:#455a64"></path><path d="M442.42,235.75a22.59,22.59,0,0,1-1.13-3.1c-.65-1.94-1.55-4.61-2.58-7.55s-2-5.58-2.71-7.5a21.45,21.45,0,0,1-1.06-3.14,20.33,20.33,0,0,1,1.4,3c.79,1.89,1.82,4.52,2.86,7.47s1.88,5.64,2.44,7.61A18.85,18.85,0,0,1,442.42,235.75Z" style="fill:#455a64"></path><path d="M444.81,274.85a3,3,0,0,1-.16-.61c-.1-.45-.22-1-.37-1.75-.32-1.59-.76-3.78-1.31-6.45-1.11-5.45-2.71-13-4.67-21.21s-3.93-15.68-5.4-21c-.72-2.63-1.32-4.78-1.75-6.35-.19-.7-.34-1.28-.46-1.73a2.25,2.25,0,0,1-.12-.61,4.38,4.38,0,0,1,.22.58l.56,1.71c.47,1.48,1.13,3.63,1.9,6.3,1.56,5.34,3.58,12.76,5.55,21s3.52,15.79,4.53,21.26c.51,2.73.9,4.95,1.15,6.48l.27,1.78A2.41,2.41,0,0,1,444.81,274.85Z" style="fill:#455a64"></path><circle cx="394.06" cy="241.68" r="0.79" style="fill:#f5f5f5"></circle><path d="M424.57,245.44a.79.79,0,0,1-.8.79.79.79,0,1,1,0-1.58A.79.79,0,0,1,424.57,245.44Z" style="fill:#f5f5f5"></path><circle cx="428.67" cy="272.56" r="0.79" style="fill:#f5f5f5"></circle><path d="M440,267.5a.79.79,0,1,1-.79-.8A.79.79,0,0,1,440,267.5Z" style="fill:#f5f5f5"></path><circle cx="434.94" cy="246.23" r="0.79" style="fill:#f5f5f5"></circle><path d="M428.67,220.21a.79.79,0,0,1-.79.79.8.8,0,1,1,.79-.79Z" style="fill:#f5f5f5"></path><path d="M445.66,242.08a.8.8,0,1,1-.79-.79A.8.8,0,0,1,445.66,242.08Z" style="fill:#f5f5f5"></path><circle cx="447.71" cy="262.47" r="0.79" style="fill:#f5f5f5"></circle><path d="M405.14,259.82a.8.8,0,0,1-.8.8.79.79,0,0,1-.79-.8.79.79,0,0,1,.79-.79A.79.79,0,0,1,405.14,259.82Z" style="fill:#f5f5f5"></path><circle cx="412.35" cy="227.12" r="0.79" style="fill:#f5f5f5"></circle><circle cx="393.27" cy="255.37" r="0.79" style="fill:#f5f5f5"></circle><circle cx="394.06" cy="273.31" r="0.79" style="fill:#f5f5f5"></circle><path d="M389.11,264.62a.8.8,0,1,1-1.59,0,.8.8,0,0,1,1.59,0Z" style="fill:#f5f5f5"></path><circle cx="413.21" cy="240.09" r="0.79" style="fill:#f5f5f5"></circle><path d="M418,257.25a.79.79,0,1,1-.79-.79A.79.79,0,0,1,418,257.25Z" style="fill:#f5f5f5"></path><circle cx="412.35" cy="272.52" r="0.79" style="fill:#f5f5f5"></circle><path d="M404.66,225.16a.79.79,0,0,1-.79-.79.79.79,0,0,1,.79-.8" style="fill:#f5f5f5"></path><path d="M407.36,269.87a.79.79,0,1,1,.12-1.58" style="fill:#f5f5f5"></path><path d="M402.56,246.23a.79.79,0,0,1-.73-.85.8.8,0,0,1,.85-.73" style="fill:#f5f5f5"></path><path d="M423.77,230.13a.8.8,0,0,1-.18-1.58" style="fill:#f5f5f5"></path><path d="M440,228.18a.79.79,0,0,1-.6-1.47" style="fill:#f5f5f5"></path><path d="M432.4,260.61a.8.8,0,0,1-.18-1.58" style="fill:#f5f5f5"></path><path d="M402.26,254.3a8.13,8.13,0,0,1,0-1.56c0-1,.1-2.45.2-4.24.2-3.58.58-8.52,1.13-14s1.19-10.36,1.71-13.91c.26-1.77.49-3.2.66-4.19a11.24,11.24,0,0,1,.32-1.53,7.55,7.55,0,0,1-.12,1.56c-.12,1.09-.29,2.5-.49,4.21-.43,3.56-1,8.47-1.56,13.91s-1,10.37-1.28,13.94c-.15,1.71-.27,3.14-.37,4.23A9.55,9.55,0,0,1,402.26,254.3Z" style="fill:#455a64"></path><rect x="363.67" y="63.65" width="109.24" height="109.24" rx="9.43" style="fill:#f5f5f5"></rect><path d="M395.88,77.22s-5,34.06-5,36.2,3.9,18.88,3.9,18.88l-3.9,27h53.93l-4.42-27s4.85-19.78,5.24-23.21-2.78-30.46-2.78-30.46l-3.58-1.41s-6.91,26.45-19.56,26.33c-10.32-.09-19.11-18.08-20.55-26.33Z" style="fill:#455a64"></path><g style="opacity:0.30000000000000004"><path d="M413.38,112a4,4,0,0,0-4.15,1.74c-.29.48-.47,1-.78,1.48a10.79,10.79,0,0,0-.8,1.15,1.15,1.15,0,0,0,.12,1.31c.57.54,1.52,0,2.28.14a6.28,6.28,0,0,1,1.21.62,2.66,2.66,0,0,0,2.79-.62,7.78,7.78,0,0,0,1.64-2.52,19.28,19.28,0,0,1-2,1.08,1.05,1.05,0,0,1-.94.08c-.28-.16-.26-.7.07-.71a2,2,0,0,1-1.25.21c-.42-.12-.74-.63-.5-1s.63-.29.94-.46c.84-.45,1.6-2.37,1.37-2.51"></path><path d="M422.17,134.77a3.91,3.91,0,0,0,3.27,3.08c.56.07,1.12,0,1.68.11a9.44,9.44,0,0,0,1.37.26,1.14,1.14,0,0,0,1.15-.63c.26-.74-.64-1.38-.8-2.15a6.15,6.15,0,0,1,.07-1.35,2.68,2.68,0,0,0-1.7-2.3,7.81,7.81,0,0,0-3-.47,18.74,18.74,0,0,1,1.8,1.39,1.09,1.09,0,0,1,.46.82c0,.32-.54.53-.68.23a2.07,2.07,0,0,1,.7,1.06c.06.42-.28.93-.7.85s-.52-.45-.8-.66c-.76-.59-2.82-.5-2.85-.24"></path><path d="M417.3,112.07a3.47,3.47,0,0,0-1.57-.15,2,2,0,0,0-1.34.78,1.45,1.45,0,0,0-.12,1.51c.2.38.62.71.53,1.13a3.13,3.13,0,0,1-.21.46.36.36,0,0,0,.08.46c.17.1.38-.05.52-.19l1.51-1.46a3.37,3.37,0,0,0,.91-1.21,1.13,1.13,0,0,0-.38-1.36"></path><path d="M423.52,112.39c-.58-.25-.47-.44-1-.77a1.91,1.91,0,0,0-1.81-.24,2.5,2.5,0,0,0-1,1.88c-.2,1-.4,2.08-.61,3.12a3.42,3.42,0,0,0,0,2,2.22,2.22,0,0,0,2.13,1.19,5,5,0,0,0,2.39-.91A3.1,3.1,0,0,0,425,117.1a1.26,1.26,0,0,0-.86-1.64,2.4,2.4,0,0,0-1.35.51,1.19,1.19,0,0,1-1.37,0c-.4-.38-.15-1.11.29-1.44s1-.46,1.5-.76.86-.91.58-1.4"></path><path d="M409.75,122c-.34-.45-.7-.47-1.25-.8a1.91,1.91,0,0,0-1.81-.24,2.46,2.46,0,0,0-1,1.88c-.21,1-.41,2.08-.62,3.12a3.42,3.42,0,0,0,0,2,2.23,2.23,0,0,0,2.13,1.19,5,5,0,0,0,2.39-.91,3.12,3.12,0,0,0,1.38-1.54,1.27,1.27,0,0,0-.87-1.64,2.35,2.35,0,0,0-1.35.51c-.43.24-1,.39-1.36,0s-.16-1.11.28-1.45,1-.45,1.5-.75.86-.91.58-1.4"></path><path d="M429.37,119.64c-.62.14-.64-.08-1.28,0a1.94,1.94,0,0,0-1.6.89,2.51,2.51,0,0,0,.3,2.11c.46,1,.92,1.92,1.37,2.88a3.43,3.43,0,0,0,1.19,1.58,2.19,2.19,0,0,0,2.41-.31,4.84,4.84,0,0,0,1.38-2.15,3.07,3.07,0,0,0,.19-2.06,1.26,1.26,0,0,0-1.67-.8,2.37,2.37,0,0,0-.78,1.21c-.2.45-.58.91-1.07.85s-.78-.79-.62-1.33a14.83,14.83,0,0,1,.75-1.49,1.15,1.15,0,0,0-.37-1.48"></path><path d="M431.3,113.12a5.09,5.09,0,0,1-1.45-.1,4.11,4.11,0,0,0-1.44,0,1.42,1.42,0,0,0-1.07.89,3.9,3.9,0,0,0,.05,1.36c0,.35-.05.7-.06,1a1.4,1.4,0,0,0,.28,1,1.82,1.82,0,0,0,1.08.48,2,2,0,0,0,1.74-.18,2,2,0,0,0,.51-1c.32-1,.65-2.09,1-3.14Z"></path><path d="M408.58,130.84a4.41,4.41,0,0,1-1.2-.08,3.28,3.28,0,0,0-1.21,0,1.17,1.17,0,0,0-.89.73,3.65,3.65,0,0,0,0,1.14c0,.29,0,.57,0,.86a1.18,1.18,0,0,0,.23.82,1.58,1.58,0,0,0,.9.4,1.73,1.73,0,0,0,1.45-.16,1.64,1.64,0,0,0,.42-.79l.81-2.62Z"></path><path d="M415.1,129.22a3.2,3.2,0,0,0-3.68.1,2.93,2.93,0,0,0-.72,3.42c.21.44.53.82.77,1.25.47.86.6,1.93,1.28,2.63a3,3,0,0,0,3.71.09,8.49,8.49,0,0,0,2.45-3.16,2,2,0,0,0-.56-3,2.59,2.59,0,0,0-.9-.68.85.85,0,0,0-1,.27c-.27.43.05,1,.19,1.44a1.85,1.85,0,0,1-1.14,2.24,1.53,1.53,0,0,1-1.92-1.41c.06-1.23,1.71-2,1.53-3.24"></path><path d="M425,128.37a4.34,4.34,0,0,1-2.78.47c-.44-.08-.94-.32-1-.77s.33-.62.6-.87a2.38,2.38,0,0,0,.8-1.76,1.65,1.65,0,0,0-1.08-1.52,1.26,1.26,0,0,0-1.56.84,3,3,0,0,0,.23,1.41,1.19,1.19,0,0,1-.31,1.32.9.9,0,0,1-1.05-.17,2.14,2.14,0,0,1-.56-1,4.14,4.14,0,0,1,.45-4.07,5.27,5.27,0,0,1,3.09-1.25,1.6,1.6,0,0,1,2.17,1.28,3.49,3.49,0,0,1,.31,2.63c-.19.44-.58.83-.56,1.32,0,.84,1.27,1.3,1.21,2.14"></path><path d="M412.25,123.33a2.42,2.42,0,0,1,.91,1.11,6.73,6.73,0,0,1,.31,1.27,1.66,1.66,0,0,0,.84,1.21,1.41,1.41,0,0,0,1.59-.58,4.07,4.07,0,0,0,.6-1.71,2.72,2.72,0,0,0-.13-1.95,2,2,0,0,0-1.53-.78,4.25,4.25,0,0,0-2.33.43.93.93,0,0,0-.5.45.4.4,0,0,0,.24.55"></path><path d="M422.6,133.91a.86.86,0,0,1,.61-.76,6.94,6.94,0,0,1,1-.19,1.09,1.09,0,0,0,.84-.54,1,1,0,0,0-.35-1.09,3,3,0,0,0-1.14-.45,1.82,1.82,0,0,0-1.32,0,1.33,1.33,0,0,0-.57,1,2.88,2.88,0,0,0,.22,1.59.69.69,0,0,0,.29.36c.14.06.35,0,.38-.15"></path></g><rect x="30.72" y="322.15" width="109.24" height="109.24" rx="9.43" style="fill:#f5f5f5"></rect><path d="M57.33,360.87l9.41,19.78s-18.06,17.57-15.82,22.12l39.91-18.13L84,373.29l-7-20.9Z" style="fill:#6C3EB4"></path><path d="M91.05,385,89,381.57,51.13,400a3.66,3.66,0,0,0-.21,2.75Z" style="fill:#263238"></path><path d="M66,381.71c.09.2,1.12-.16,2.37,0s2.15.79,2.29.63S70,381.2,68.48,381,65.87,381.55,66,381.71Z" style="fill:#263238"></path><path d="M62.56,385.38c0,.21,1,.16,2.1.69s1.63,1.32,1.83,1.22-.19-1.27-1.5-1.9S62.48,385.19,62.56,385.38Z" style="fill:#263238"></path><path d="M62.46,391.53c.2,0,0-1.15-1-2s-2.11-.86-2.12-.65.83.51,1.63,1.22S62.26,391.6,62.46,391.53Z" style="fill:#263238"></path><path d="M64.19,376.8c.17.14,1-.54,2.09-1s2.17-.47,2.2-.68-1.13-.54-2.47,0S64,376.69,64.19,376.8Z" style="fill:#263238"></path><path d="M65.74,376.06a1.84,1.84,0,0,1-.56-.7,4.25,4.25,0,0,1-.5-2.41,4.19,4.19,0,0,1,.15-.82,1.7,1.7,0,0,1,.5-.84.82.82,0,0,1,1.15.08,1.53,1.53,0,0,1,.17,1.12c-.07.67-.15,1.37-.23,2.09l-.06.55,0,.28a.54.54,0,0,1-.22.43.6.6,0,0,1-.47.06l-.28-.06-.58-.13a15,15,0,0,1-2.18-.72c-.34-.14-.67-.3-1-.46a2.47,2.47,0,0,1-.92-.65.85.85,0,0,1-.19-.65.76.76,0,0,1,.39-.54,1.62,1.62,0,0,1,1-.13,4.71,4.71,0,0,1,1.63.59,4.56,4.56,0,0,1,1.71,1.75,1.87,1.87,0,0,1,.3.85,8.37,8.37,0,0,1-.47-.74,4.83,4.83,0,0,0-1.72-1.54,4.32,4.32,0,0,0-1.51-.48,1.17,1.17,0,0,0-.75.1.3.3,0,0,0-.06.49,2.29,2.29,0,0,0,.77.51c.31.15.63.29,1,.43a16.29,16.29,0,0,0,2.11.69l.55.12.28.06h.1s0,.1,0,.07-.09-.05,0-.05a.54.54,0,0,0,0-.08l0-.27.06-.55c.09-.72.18-1.42.26-2.09a1.19,1.19,0,0,0,0-.78c-.09-.15-.35-.14-.53,0A2.31,2.31,0,0,0,65,373a4.52,4.52,0,0,0,.32,2.28A7.65,7.65,0,0,1,65.74,376.06Z" style="fill:#263238"></path><path d="M79.79,360.75c-.8.91-2.21.84-3.43.75s-2.66,0-3.31,1a11.77,11.77,0,0,1-.61,1.17c-.53.65-1.49.66-2.32.75a7.42,7.42,0,0,0-3.71,1.49c-.22.17-.45.4-.42.67s.36.48.67.52c1.21.15,2.24-1,3.46-1.08,1,0,2,.69,2.87.35s1.26-1.62,2.19-2a4.31,4.31,0,0,1,1.85.08,4.09,4.09,0,0,0,3.49-1.61l-.73-2.15" style="fill:#fff"></path><path d="M65.52,378.42a2.33,2.33,0,0,1,2.44-.8c.57.16,1.23.53,1.69.17s.29-1.21.71-1.64.81-.31,1.18-.54c1-.56.62-2.2,1.51-2.88.56-.43,1.41-.28,2-.68a3.11,3.11,0,0,0,.8-1,1.61,1.61,0,0,1,1-.82c.43-.08.94.34.78.75-.07.21-.28.33-.46.46a3.23,3.23,0,0,0-1.26,2c-.14.76,0,1.67-.62,2.18s-1.25.4-1.57.93,0,1.3-.39,1.76-1.22.24-1.76.56-.6.78-1,1.07a1.74,1.74,0,0,1-1.4.15,8.49,8.49,0,0,0-1.41-.33,1.26,1.26,0,0,0-1.22.61" style="fill:#fff"></path><path d="M86.05,377.23c-.09-.5-.81-.61-1.22-.31a2.75,2.75,0,0,0-.76,1.26,1.75,1.75,0,0,1-1,1.09,7.09,7.09,0,0,0-.94.13c-.48.21-.62.85-1.08,1.09s-1.14-.1-1.68.08-.84.95-1.35,1.34c-.78.6-2,.2-2.83.64S74,384.13,73,384.39a5.17,5.17,0,0,1-1.52,0c-.5,0-1.1.23-1.19.73a.91.91,0,0,0,.87.93,2.27,2.27,0,0,0,1.34-.43,3.75,3.75,0,0,1,1.3-.6c.53-.08,1.08.1,1.61,0s1.24-.74,1.93-.71,1.16.47,1.65.19.45-.68.76-.92c.5-.39,1.29-.05,1.83-.38a2.77,2.77,0,0,0,.66-.78,3.81,3.81,0,0,1,1.07-.79,16.5,16.5,0,0,1,4.3-1.95" style="fill:#fff"></path><path d="M55.1,393.89a.72.72,0,0,1,.9-.44,3.4,3.4,0,0,1,1,.56,1.19,1.19,0,0,0,1.05.22c.53-.2.66-1,1.17-1.21s1.11.15,1.68.11a2.2,2.2,0,0,0,1.14-.54l1.9-1.39a3,3,0,0,1,1.23-.63,1,1,0,0,1,1.13.6,1.13,1.13,0,0,1-.68,1.21c-.45.24-1,.33-1.39.6-.58.37-1,1-1.6,1.28s-1.23,0-1.82.21-1.07.78-1.67,1c-.4.18-.86.21-1.25.4a4.41,4.41,0,0,0-1.1,1c-1.52,1.56-3.66,2.33-5.72,3.05a16.46,16.46,0,0,1,4.26-6.3" style="fill:#fff"></path><path d="M59.63,366a1.58,1.58,0,0,0,2.11-1,2.47,2.47,0,0,1,.3-1,1.25,1.25,0,0,1,1.12-.26,1.86,1.86,0,0,0,1.17-.07c.62-.36.63-1.38,1.29-1.64.34-.13.73,0,1.08-.1.69-.2.81-1.15,1.36-1.62a4.39,4.39,0,0,1,1.09-.52c.37-.18.73-.51.7-.91a.78.78,0,0,0-.6-.65,1.49,1.49,0,0,0-.93.08c-1.23.44-2.19,1.67-3.5,1.69-.51,0-1.07-.16-1.5.11s-.55.89-1,1.23c-.66.59-1.82.18-2.49.75-.25.21-.44.55-.76.56a2.12,2.12,0,0,1-.58-.17c-.2,0-.47.1-.41.3" style="fill:#fff"></path><path d="M89.61,367.52,99,387.31S81,404.88,83.19,409.43L123.1,391.3,116.25,380l-7-20.9Z" style="fill:#6C3EB4"></path><path d="M123.32,391.65l-2.07-3.42L83.4,406.68a3.66,3.66,0,0,0-.21,2.75Z" style="fill:#263238"></path><path d="M98.27,388.37c.09.19,1.12-.16,2.37,0s2.15.78,2.29.62-.66-1.16-2.18-1.37S98.14,388.21,98.27,388.37Z" style="fill:#263238"></path><path d="M94.84,392c0,.21,1,.16,2.09.69s1.64,1.32,1.83,1.22-.19-1.27-1.5-1.9S94.75,391.85,94.84,392Z" style="fill:#263238"></path><path d="M94.73,398.19c.2,0,0-1.15-1-2s-2.11-.86-2.11-.66.82.52,1.62,1.23S94.53,398.26,94.73,398.19Z" style="fill:#263238"></path><path d="M96.46,383.46c.17.14,1-.54,2.09-1s2.18-.47,2.2-.69-1.12-.53-2.47,0S96.3,383.35,96.46,383.46Z" style="fill:#263238"></path><path d="M98,382.72a1.84,1.84,0,0,1-.56-.7,4.2,4.2,0,0,1-.34-3.23,1.61,1.61,0,0,1,.49-.84.82.82,0,0,1,1.15.08,1.46,1.46,0,0,1,.17,1.11c-.07.68-.15,1.38-.23,2.1l-.06.55,0,.28a.59.59,0,0,1-.23.43.65.65,0,0,1-.47.06l-.28-.06-.57-.13a14.78,14.78,0,0,1-2.19-.72c-.34-.14-.67-.3-1-.46a2.68,2.68,0,0,1-.92-.65.86.86,0,0,1-.19-.65.78.78,0,0,1,.39-.54,1.62,1.62,0,0,1,1-.13,4.63,4.63,0,0,1,1.63.59,4.49,4.49,0,0,1,1.71,1.75,1.74,1.74,0,0,1,.3.84s-.16-.27-.47-.74a4.82,4.82,0,0,0-1.72-1.53,4.32,4.32,0,0,0-1.51-.48,1.25,1.25,0,0,0-.75.09.3.3,0,0,0,0,.5,2.09,2.09,0,0,0,.76.5c.31.16.63.3,1,.44a16.29,16.29,0,0,0,2.11.69l.55.12.28.06h.1s0,.1,0,.07-.08-.05-.05-.05a.54.54,0,0,0,0-.08l0-.27.06-.55c.09-.72.18-1.42.26-2.09a1.19,1.19,0,0,0,0-.78c-.09-.15-.35-.14-.52,0a2.19,2.19,0,0,0-.55,1.35,4.42,4.42,0,0,0,.31,2.28A7.65,7.65,0,0,1,98,382.72Z" style="fill:#263238"></path><path d="M112.07,367.4c-.81.92-2.22.85-3.44.76s-2.66,0-3.31,1a10.92,10.92,0,0,1-.61,1.18c-.53.65-1.48.65-2.31.75a7.42,7.42,0,0,0-3.72,1.49c-.22.17-.45.39-.42.67s.36.48.67.52c1.22.15,2.24-1,3.47-1.08,1,0,1.95.69,2.87.35s1.25-1.62,2.18-2a4.35,4.35,0,0,1,1.86.08,4.07,4.07,0,0,0,3.48-1.61l-.72-2.16" style="fill:#fff"></path><path d="M97.79,385.08a2.35,2.35,0,0,1,2.44-.81c.57.17,1.23.54,1.7.18s.28-1.21.71-1.65.8-.31,1.17-.53c1-.56.63-2.2,1.51-2.88.56-.43,1.41-.28,2-.68a3.28,3.28,0,0,0,.81-1,1.57,1.57,0,0,1,1-.82c.43-.08.94.34.79.75a1.22,1.22,0,0,1-.47.46,3.21,3.21,0,0,0-1.26,2c-.13.76,0,1.67-.62,2.18s-1.25.4-1.57.93,0,1.3-.38,1.76-1.22.24-1.77.56-.6.78-1,1.07a1.72,1.72,0,0,1-1.39.15,9,9,0,0,0-1.41-.33,1.24,1.24,0,0,0-1.22.61" style="fill:#fff"></path><path d="M118.32,383.89c-.09-.5-.81-.61-1.22-.32a2.83,2.83,0,0,0-.76,1.27,1.72,1.72,0,0,1-1,1.09,5.75,5.75,0,0,0-.94.13c-.47.21-.62.85-1.08,1.08s-1.13-.09-1.68.08-.84,1-1.35,1.35c-.78.6-2,.2-2.83.63s-1.26,1.59-2.19,1.85a6,6,0,0,1-1.52,0c-.5,0-1.1.22-1.18.73a.9.9,0,0,0,.87.93,2.37,2.37,0,0,0,1.34-.43,3.79,3.79,0,0,1,1.29-.6c.53-.08,1.08.1,1.61,0,.68-.14,1.24-.74,1.93-.71s1.16.47,1.65.19.45-.68.77-.93c.49-.38,1.28,0,1.83-.37a3.14,3.14,0,0,0,.66-.78,3.66,3.66,0,0,1,1.06-.8,16.8,16.8,0,0,1,4.3-1.94" style="fill:#fff"></path><path d="M87.37,400.55a.72.72,0,0,1,.9-.44,3.47,3.47,0,0,1,1,.55,1.17,1.17,0,0,0,1.05.23c.54-.2.66-1,1.18-1.21s1.11.15,1.67.11a2.28,2.28,0,0,0,1.14-.54l1.91-1.39a3,3,0,0,1,1.22-.63,1,1,0,0,1,1.14.59,1.16,1.16,0,0,1-.69,1.22c-.44.24-1,.33-1.38.6-.58.37-1,1-1.61,1.28s-1.23,0-1.82.21-1.07.78-1.67,1.05c-.4.18-.86.21-1.25.4a4.41,4.41,0,0,0-1.1,1,14.29,14.29,0,0,1-5.71,3.05,16.44,16.44,0,0,1,4.25-6.3" style="fill:#fff"></path><path d="M91.9,372.61a1.59,1.59,0,0,0,2.12-1,2.29,2.29,0,0,1,.29-1,1.25,1.25,0,0,1,1.12-.26,1.89,1.89,0,0,0,1.18-.07c.61-.36.62-1.39,1.28-1.64.34-.13.73,0,1.08-.1.69-.2.81-1.15,1.36-1.62a4.59,4.59,0,0,1,1.09-.53c.37-.17.74-.5.7-.9a.79.79,0,0,0-.6-.66,1.53,1.53,0,0,0-.92.09c-1.24.44-2.2,1.67-3.51,1.69-.51,0-1.06-.16-1.5.11s-.55.89-.94,1.23c-.67.59-1.83.17-2.5.75-.24.21-.43.55-.76.56s-.38-.13-.58-.17-.47.1-.4.29" style="fill:#fff"></path><rect x="30.72" y="193.02" width="109.24" height="109.24" rx="9.43" style="fill:#f5f5f5"></rect><path d="M58.39,219.29s-14,32.43-13.35,50l36.55,11,6.24-11.87,5.29,11.87s28.24-6.89,35.9-13.79c0,0-7.48-37.91-13.32-47.11,0,0,3.64-7.66.82-8s-7.42.38-10.86,0-4.6.55-8.81-.11-3.86,4.71-9,3.56-5.18-2.25-10.53-3.61-8.38,2.9-11.81,1.76A51.28,51.28,0,0,0,58,211.4a3.74,3.74,0,0,0-4.3,2.86,1.33,1.33,0,0,0,1,1.74A6,6,0,0,1,58.39,219.29Z" style="fill:#455a64"></path><path d="M108.22,211.91a6.94,6.94,0,0,1-.79,4.16,6.78,6.78,0,0,1-2.68,3.27,31.15,31.15,0,0,0,2.21-3.49A31.79,31.79,0,0,0,108.22,211.91Z" style="fill:#263238"></path><path d="M87.4,236.46a7,7,0,0,1-.58-.63l-1.5-1.77c-1.32-1.57-3.1-3.72-5.22-6.27h.35l-7.09,8.84v-.33l.18.24,6.92,9H80.1c2.12-2.65,3.9-4.89,5.21-6.54.61-.75,1.11-1.37,1.51-1.85a7.08,7.08,0,0,1,.58-.66,3.68,3.68,0,0,1-.44.67L85.57,239l-5.11,6.78-.18.23-.18-.23-7-8.93-.18-.24-.13-.16.13-.16,7.15-8.79.18-.22.17.22L85.57,234l1.39,1.8A3.49,3.49,0,0,1,87.4,236.46Z" style="fill:#fafafa"></path><path d="M114.08,230.84a7,7,0,0,1-.58-.63l-1.5-1.76-5.22-6.28h.35L100,231v-.33l.18.24,6.92,9h-.36c2.12-2.65,3.9-4.89,5.21-6.54l1.51-1.85a7.08,7.08,0,0,1,.58-.66,3.68,3.68,0,0,1-.44.67l-1.39,1.88-5.11,6.78-.18.23-.18-.23-7-8.93-.18-.24-.13-.16.13-.16c2.62-3.21,5.06-6.22,7.15-8.79l.18-.22.17.22,5.12,6.51,1.39,1.81A3.29,3.29,0,0,1,114.08,230.84Z" style="fill:#fafafa"></path><path d="M94.41,211.91a46.53,46.53,0,0,1,4.52,5.4h-.39l0,0,.06-.07.11-.14.22-.29.43-.55.82-1,1.42-1.73a8.55,8.55,0,0,1,1.4-1.52,7.93,7.93,0,0,1-1.11,1.74l-1.33,1.8c-.26.35-.52.7-.8,1.06l-.42.55-.22.28-.11.15-.06.07,0,0,0,0h-.42A48.53,48.53,0,0,1,94.41,211.91Z" style="fill:#fafafa"></path><path d="M68.32,219.34a9.14,9.14,0,0,1-1.51-1.61c-.88-1-2.08-2.49-3.37-4.12l-.3-.38.43,0c-1,1.69-1.92,3.19-2.61,4.25a8,8,0,0,1-1.19,1.67,8.63,8.63,0,0,1,.88-1.85c.61-1.11,1.48-2.64,2.47-4.34l.2-.32.23.29.3.38c1.29,1.63,2.44,3.12,3.25,4.21A9.2,9.2,0,0,1,68.32,219.34Z" style="fill:#fafafa"></path><path d="M105.24,258.93a7,7,0,0,1-.58-.63l-1.5-1.76-5.22-6.28h.35L91.2,259.1v-.33l.18.24,6.92,9h-.36c2.12-2.65,3.9-4.89,5.21-6.54.61-.75,1.12-1.36,1.51-1.85a7.08,7.08,0,0,1,.58-.66,3.68,3.68,0,0,1-.44.67c-.36.49-.82,1.12-1.39,1.88l-5.11,6.78-.18.23-.18-.23-7-8.93-.18-.24-.13-.16.13-.16c2.62-3.21,5.06-6.22,7.15-8.79l.18-.22.17.22,5.12,6.51c.57.73,1,1.33,1.39,1.81A3.29,3.29,0,0,1,105.24,258.93Z" style="fill:#fafafa"></path><path d="M74,266.33a7,7,0,0,1-.58-.63l-1.5-1.77c-1.31-1.58-3.1-3.72-5.21-6.27H67l-7.09,8.83v-.32l.18.23c2.53,3.27,4.89,6.35,6.92,9h-.36l5.21-6.55c.62-.75,1.12-1.36,1.51-1.85a7.65,7.65,0,0,1,.58-.65,3.48,3.48,0,0,1-.44.66l-1.39,1.89L67,275.65l-.18.24-.18-.24-7-8.93-.18-.23-.13-.17.13-.16,7.16-8.79.17-.21.17.21,5.13,6.51,1.38,1.81A3.49,3.49,0,0,1,74,266.33Z" style="fill:#fafafa"></path><path d="M47.65,250.63a3.71,3.71,0,0,1,.73-.68c.49-.41,1.21-1,2.11-1.7,1.8-1.41,4.3-3.33,7.08-5.43l1-.78-.07.33c-1.52-2.8-2.86-5.3-3.8-7.1a21.93,21.93,0,0,1-1.41-3A23.58,23.58,0,0,1,55,235.1c1,1.76,2.41,4.23,3.94,7l.11.2-.18.13c-.33.25-.67.52-1,.78-2.78,2.1-5.32,4-7.17,5.32-.92.67-1.68,1.2-2.21,1.56A3.85,3.85,0,0,1,47.65,250.63Z" style="fill:#fafafa"></path><path d="M127.11,257.82a3.54,3.54,0,0,1-.78-.61c-.48-.41-1.16-1-2-1.79-1.67-1.53-4-3.67-6.45-6l-.12-.12.06-.16h0c1.14-3.26,2.2-6.21,3-8.33.4-1.06.73-1.92,1-2.51a3.56,3.56,0,0,1,.42-.89,3.9,3.9,0,0,1-.23,1c-.18.61-.46,1.48-.81,2.56-.7,2.16-1.71,5.12-2.85,8.39h0l-.07-.27c2.5,2.39,4.74,4.57,6.35,6.17.8.8,1.44,1.45,1.88,1.91A3.56,3.56,0,0,1,127.11,257.82Z" style="fill:#fafafa"></path><path d="M116,219.14a2.3,2.3,0,0,1-.57.15,15.08,15.08,0,0,1-1.65.3,32,32,0,0,1-6.19.28c-2.61-.09-5.71-.45-9.12-.89a79.92,79.92,0,0,0-11.13-.85c-4,0-7.73.44-11.16.78s-6.52.61-9.14.69a50.45,50.45,0,0,1-6.18-.15c-.73-.06-1.29-.15-1.67-.2a3.71,3.71,0,0,1-.57-.11,2.2,2.2,0,0,1,.59,0c.38,0,.94.08,1.67.11,1.45.07,3.55.11,6.15,0s5.68-.43,9.1-.8,7.21-.78,11.2-.82a75.63,75.63,0,0,1,11.2.9c3.42.47,6.49.85,9.08,1a36.26,36.26,0,0,0,6.14-.11C115.16,219.25,116,219.09,116,219.14Z" style="fill:#263238"></path><path d="M62.77,245.58a5.08,5.08,0,0,1,0-1.06c.05-.68.14-1.66.29-2.86.28-2.41.81-5.73,1.61-9.34s1.73-6.85,2.49-9.15c.38-1.15.71-2.08,1-2.71a4.34,4.34,0,0,1,.43-1,4.09,4.09,0,0,1-.24,1l-.79,2.76c-.67,2.32-1.54,5.55-2.34,9.15s-1.38,6.89-1.76,9.28c-.17,1.11-.32,2-.45,2.83A3.69,3.69,0,0,1,62.77,245.58Z" style="fill:#263238"></path><path d="M68,235.77a65.56,65.56,0,0,1,1.12-8.16,66.17,66.17,0,0,1,1.63-8.08,65.56,65.56,0,0,1-1.12,8.16A66.17,66.17,0,0,1,68,235.77Z" style="fill:#263238"></path><path d="M111.31,259.76a10.5,10.5,0,0,1-.69-1.48c-.43-1-1-2.37-1.62-4.14a100.39,100.39,0,0,1-4-14.12,102.73,102.73,0,0,1-1.88-14.54c-.1-1.88-.14-3.4-.13-4.45a9.11,9.11,0,0,1,.07-1.63,11.46,11.46,0,0,1,.14,1.63c0,1,.14,2.56.29,4.42A118,118,0,0,0,109.35,254c.59,1.77,1.09,3.2,1.46,4.19A10.26,10.26,0,0,1,111.31,259.76Z" style="fill:#263238"></path><path d="M110.16,234.45a8.5,8.5,0,0,1-.8-2.06c-.43-1.29-1-3.09-1.48-5.11s-.91-3.85-1.16-5.19a8.6,8.6,0,0,1-.28-2.19,10.32,10.32,0,0,1,.64,2.11c.38,1.52.82,3.24,1.31,5.14l1.32,5.14A10.15,10.15,0,0,1,110.16,234.45Z" style="fill:#263238"></path><path d="M83.67,276.68a1.88,1.88,0,0,1-.42,0c-.27,0-.67-.09-1.18-.2a38.45,38.45,0,0,1-4.25-1.18,119.37,119.37,0,0,1-13.24-5.91,56.43,56.43,0,0,0-13.53-4.93,30.68,30.68,0,0,0-4.33-.53,13.84,13.84,0,0,1-1.61-.09,1.13,1.13,0,0,1,.41-.06,11.77,11.77,0,0,1,1.2-.05,25.35,25.35,0,0,1,4.4.37,51.84,51.84,0,0,1,13.68,4.82,144.37,144.37,0,0,0,13.15,6c1.73.64,3.17,1.07,4.17,1.33A10.39,10.39,0,0,1,83.67,276.68Z" style="fill:#263238"></path><path d="M128,261.61a8.8,8.8,0,0,1-1.28.87c-.84.53-2.08,1.27-3.63,2.14a115.6,115.6,0,0,1-12.55,6,114.36,114.36,0,0,1-13.18,4.45c-1.72.46-3.12.8-4.1,1a7.83,7.83,0,0,1-1.52.27,9.08,9.08,0,0,1,1.47-.46c1-.27,2.34-.66,4-1.16,3.4-1,8.06-2.54,13.08-4.58s9.43-4.2,12.57-5.85c1.57-.82,2.84-1.51,3.71-2A9.14,9.14,0,0,1,128,261.61Z" style="fill:#263238"></path><path d="M111.28,215.11a5.17,5.17,0,0,1-1.5,2.59,5.24,5.24,0,0,1-2.42,1.77c-.08-.13,1-.92,2-2.12A27.75,27.75,0,0,1,111.28,215.11Z" style="fill:#263238"></path><path d="M71.42,212.38c.16,0,.26,1.54.91,3.3s1.55,3,1.43,3.1a5.75,5.75,0,0,1-1.92-2.93A6,6,0,0,1,71.42,212.38Z" style="fill:#263238"></path><rect x="30.72" y="63.89" width="109.24" height="109.24" rx="9.43" style="fill:#fafafa"></rect><path d="M30.72,73.32s0-.37,0-1.09A9.42,9.42,0,0,1,35,65.31,9.19,9.19,0,0,1,38.1,64a17.09,17.09,0,0,1,3.77-.24L87,63.71l31.13,0h8.54c1.45,0,2.89,0,4.38,0A9.44,9.44,0,0,1,135.33,65a9.67,9.67,0,0,1,4.82,7.53c.09,3.1,0,6.18,0,9.33,0,25.17,0,52.84,0,81.88a9.68,9.68,0,0,1-5.71,8.84,9.14,9.14,0,0,1-2.65.76,18.91,18.91,0,0,1-2.7.1H102.94l-39.49,0H40.62a10.1,10.1,0,0,1-4.35-.82,9.68,9.68,0,0,1-5.46-6.44,15.7,15.7,0,0,1-.3-4.19v-4.09q0-4,0-7.94,0-7.8,0-14.94c0-19,.07-34.43.09-45.09,0-5.31,0-9.44.05-12.25,0-1.4,0-2.46,0-3.19s0-1.09,0-1.09,0,.37,0,1.09,0,1.79,0,3.19c0,2.81,0,6.94.05,12.25,0,10.66.05,26.06.08,45.09q0,7.14,0,14.94,0,3.88,0,7.94v4.09a15.85,15.85,0,0,0,.3,4.08,9.23,9.23,0,0,0,5.22,6.14,9.63,9.63,0,0,0,4.17.78h88.54a19.05,19.05,0,0,0,2.63-.09,9.07,9.07,0,0,0,2.5-.72,9.17,9.17,0,0,0,5.41-8.37c0-29,0-56.71,0-81.88,0-3.13,0-6.27,0-9.29a9.19,9.19,0,0,0-4.58-7.17A9,9,0,0,0,131,64.14c-1.45,0-2.92,0-4.36,0h-8.54L87,64.08,41.87,64a17.9,17.9,0,0,0-3.73.21,9,9,0,0,0-3,1.24,9.26,9.26,0,0,0-3.4,3.78A9.92,9.92,0,0,0,30.72,73.32Z" style="fill:#6C3EB4"></path><path d="M111.36,146.84c-.36-.76-4.92-17.2-4.92-17.2l.84-17.51.83-24.26-11.79-2.1c-8.55,5-22,7-30.71,3,0,0-4.7.22-7,2.33-.88.81.55,7.88,1.84,14.85,1.36,7.33,5.18,25.55,5.18,25.55s-6.48,15.63-7.86,20.12c0,0,39.6-7.18,52.86,0C110.63,151.63,113.43,151.24,111.36,146.84Z" style="fill:#6C3EB4"></path><path d="M44.1,100l14.76-9.11,4,20.31-7.61,6.47S43.69,111.72,44.1,100Z" style="fill:#6C3EB4"></path><path d="M108.11,87.87l15,6.5s-4.93,18.81-7.81,21l-7.61-3.22L105.82,118l-.1-23.62Z" style="fill:#6C3EB4"></path><path d="M56.62,115.79a2.77,2.77,0,0,1-.76-.35A16.23,16.23,0,0,1,54,114.2a21.14,21.14,0,0,1-5.1-5.46A20.78,20.78,0,0,1,47,105a17.14,17.14,0,0,1-.82-3.27,12.93,12.93,0,0,1-.16-2.26,2.21,2.21,0,0,1,.08-.83c.09,0,.08,1.18.44,3a19.4,19.4,0,0,0,.91,3.17,22.48,22.48,0,0,0,1.82,3.59,23.6,23.6,0,0,0,4.89,5.45C55.66,115.1,56.67,115.71,56.62,115.79Z" style="fill:#e0e0e0"></path><path d="M60.83,108.36s-.22-.07-.58-.29A11.4,11.4,0,0,1,59,106.94a35.9,35.9,0,0,1-3.53-4.41,46.61,46.61,0,0,1-2.93-4.82,6.52,6.52,0,0,1-.85-2.18c.07,0,.43.78,1.18,2s1.79,2.89,3,4.69,2.44,3.38,3.37,4.46c.47.53.87.94,1.15,1.22S60.84,108.32,60.83,108.36Z" style="fill:#e0e0e0"></path><path d="M106.38,89.25a13.94,13.94,0,0,1-1.81.47c-1.17.29-2.85.74-4.9,1.37l-7.23,2.26a59.36,59.36,0,0,1-9,2.1A36.31,36.31,0,0,1,66.68,93.8a34.75,34.75,0,0,1-4.7-2c-.54-.27-.93-.53-1.21-.69a1.94,1.94,0,0,1-.4-.28,14.59,14.59,0,0,1,1.7.78,40.36,40.36,0,0,0,4.73,1.87,37.37,37.37,0,0,0,16.52,1.48,61.08,61.08,0,0,0,9-2c2.73-.8,5.17-1.58,7.25-2.16s3.78-1,5-1.21c.59-.12,1-.18,1.37-.23A1.35,1.35,0,0,1,106.38,89.25Z" style="fill:#e0e0e0"></path><path d="M108,103a2.7,2.7,0,0,1-.48.11l-1.38.22c-1.2.2-2.94.42-5.1.64-4.32.45-10.32.8-17,.81s-12.63-.24-17-.46L62,104l-1.39-.11a2.46,2.46,0,0,1-.49-.07,1.56,1.56,0,0,1,.49,0H62l5.14.13c4.33.13,10.32.32,16.94.31s12.59-.3,16.91-.66c2.16-.17,3.91-.34,5.12-.47l1.39-.13A1.53,1.53,0,0,1,108,103Z" style="fill:#e0e0e0"></path><path d="M107.28,112.13a10,10,0,0,1-1.7.55c-.55.17-1.23.32-2,.5s-1.71.37-2.73.52a113.56,113.56,0,0,1-16,1.4c-6.27.18-11.95,0-16-.32-2-.15-3.71-.33-4.85-.48a13.68,13.68,0,0,1-1.76-.31,10.24,10.24,0,0,1,1.78.11c1.15.08,2.8.21,4.85.31,4.09.19,9.76.35,16,.17a134.34,134.34,0,0,0,16-1.24c1-.13,1.93-.29,2.73-.45s1.49-.27,2-.41A14.37,14.37,0,0,1,107.28,112.13Z" style="fill:#e0e0e0"></path><path d="M106,124.62a10.93,10.93,0,0,1-1.63.24c-1,.12-2.58.26-4.47.42-3.78.29-9,.59-14.8.66s-11-.14-14.81-.48c-1.89-.18-3.42-.35-4.47-.54a11.38,11.38,0,0,1-1.62-.3,9.21,9.21,0,0,1,1.65.1c1,.12,2.58.24,4.46.37,3.78.25,9,.41,14.78.33s11-.31,14.78-.51l4.48-.25A9.4,9.4,0,0,1,106,124.62Z" style="fill:#e0e0e0"></path><path d="M108.44,136.92a10.84,10.84,0,0,1-1.78-.07l-4.85-.34c-4.09-.27-9.76-.55-16-.55s-11.93.28-16,.55l-4.85.34a10.84,10.84,0,0,1-1.78.07,12.32,12.32,0,0,1,1.76-.27c1.14-.15,2.79-.32,4.84-.51,4.09-.36,9.77-.7,16-.7s11.94.34,16,.7c2,.18,3.7.36,4.84.51A12.32,12.32,0,0,1,108.44,136.92Z" style="fill:#e0e0e0"></path><path d="M113.18,93.07a13.16,13.16,0,0,1-2,4.27,13.2,13.2,0,0,1-3,3.64c-.12-.09,1.17-1.74,2.52-3.92S113,93,113.18,93.07Z" style="fill:#e0e0e0"></path><path d="M59.15,98.68a5.76,5.76,0,0,1,.32,1.27l.75,3.51c.64,3.07,1.49,7.11,2.43,11.58s1.74,8.63,2.28,11.61c.26,1.49.46,2.7.58,3.54a7.13,7.13,0,0,1,.12,1.32,6,6,0,0,1-.32-1.28l-.75-3.51c-.64-3.06-1.49-7.11-2.42-11.58s-1.75-8.62-2.28-11.61c-.27-1.49-.47-2.7-.59-3.54A7.05,7.05,0,0,1,59.15,98.68Z" style="fill:#263238"></path><path d="M108.26,104.06a4.43,4.43,0,0,1,0,1c0,.65-.06,1.59-.11,2.75-.12,2.31-.32,5.51-.57,9s-.51,6.73-.72,9c-.11,1.16-.2,2.1-.28,2.74a4.44,4.44,0,0,1-.17,1,3.32,3.32,0,0,1,0-1c0-.65,0-1.59.11-2.75.12-2.31.32-5.51.57-9s.51-6.73.72-9c.1-1.16.2-2.09.28-2.74A3.23,3.23,0,0,1,108.26,104.06Z" style="fill:#263238"></path><path d="M119.09,92.86a26.2,26.2,0,0,1-1.23,3c-.78,1.83-1.78,4.39-2.71,7.27s-1.58,5.56-2,7.51a27.15,27.15,0,0,1-.73,3.14,2.76,2.76,0,0,1,0-.87c.06-.56.17-1.36.34-2.35a56.33,56.33,0,0,1,1.87-7.58,57.36,57.36,0,0,1,2.87-7.27c.43-.9.8-1.62,1.08-2.11A3.31,3.31,0,0,1,119.09,92.86Z" style="fill:#e0e0e0"></path><path d="M111.31,147.44a3.26,3.26,0,0,1-.55-.1l-1.54-.37c-.67-.17-1.49-.37-2.45-.56s-2-.46-3.26-.64-2.54-.44-4-.59-3-.31-4.6-.45a88.47,88.47,0,0,0-10.56,0,86.36,86.36,0,0,0-10.48,1.41c-1.59.35-3.1.65-4.49,1.05s-2.69.75-3.87,1.12-2.22.74-3.14,1.06-1.71.62-2.35.88l-1.48.58A2,2,0,0,1,58,151a2.87,2.87,0,0,1,.49-.26l1.44-.66c.63-.29,1.4-.63,2.33-1s2-.78,3.13-1.14,2.46-.82,3.87-1.19,2.91-.74,4.5-1.1A75.31,75.31,0,0,1,95,144.25c1.62.15,3.17.27,4.61.5s2.78.42,4,.66,2.3.49,3.26.72,1.77.44,2.43.65l1.52.46A1.74,1.74,0,0,1,111.31,147.44Z" style="fill:#e0e0e0"></path></g><g id="freepik--Character--inject-4"><path d="M226,169.31c0,3.51,1.29,4.78-.66,7.44-.76,1-1.77,2-1.9,3.24-.14,1.51,1,2.86,1.07,4.38,0,1.79-1.54,3.14-2.42,4.7-1.93,3.43-.49,7.7,1,11.36l32.49-9.19a2.25,2.25,0,0,0,2-3.1,115,115,0,0,0-4.31-18.39" style="fill:#263238"></path><path d="M251.79,116.66c-6.71,1.08-14,6-16.58,12.31s-2.35,14.33-2.23,21.12c2.07-.41,3.38.56,5.49.42a5.15,5.15,0,0,0,3.36-2.17,35,35,0,0,0,4.67-8.46q4.59-10.56,9-21.19" style="fill:#263238"></path><path d="M241.63,126.87c-10.53,6.82-7.88,19.46-9.93,22.43-.81,1.19-1.81,2.38-1.88,3.77s1,2.93,1,4.45c0,2.11-1.86,3.81-3.09,5.64a9.89,9.89,0,0,0-1.33,8.36,2.35,2.35,0,0,0,1.05,1.51,3.44,3.44,0,0,0,1.41.27q15,.69,30.05.3c2.29-.06,4.69-.17,6.62-1.23,2.64-1.45,3.72-4.27,4.6-6.86S272,160,273,157.29a31.37,31.37,0,0,0,1.5-5.42,55.19,55.19,0,0,0,.15-7.72,71.07,71.07,0,0,0,.11-7.15,10.35,10.35,0,0,0-2.82-6.6" style="fill:#263238"></path><path d="M272.18,137.13A16.82,16.82,0,0,0,255,120.07a17.32,17.32,0,0,0-16.92,16.5c-.38,7.85-.59,15.76-.26,18.59,1,8.54,6.44,11.34,8.61,12.12a11.47,11.47,0,0,0,2.35.32h0a.06.06,0,0,1,.05.06l-.91,10c-.21,6.52,4,11.87,10.68,12.12s11.26-5.21,11.59-11.75Z" style="fill:#ffbe9d"></path><path d="M242.16,143.29a1.37,1.37,0,0,0,1.28,1.42,1.33,1.33,0,0,0,1.49-1.17,1.37,1.37,0,0,0-1.28-1.43A1.34,1.34,0,0,0,242.16,143.29Z" style="fill:#263238"></path><path d="M240.23,138.38c.12.19,1.3,0,2.72.43a25.9,25.9,0,0,1,2.48,1.3c.09,0,0-.34-.37-.75a4.61,4.61,0,0,0-1.93-1.2,4.23,4.23,0,0,0-2.22-.17C240.39,138.1,240.17,138.3,240.23,138.38Z" style="fill:#263238"></path><path d="M256.58,143.29a1.35,1.35,0,0,0,1.28,1.42,1.32,1.32,0,0,0,1.48-1.17,1.36,1.36,0,0,0-1.27-1.43A1.33,1.33,0,0,0,256.58,143.29Z" style="fill:#263238"></path><path d="M255.41,140.94c.22.06,1.07-.87,2.57-1.46s2.82-.52,2.93-.7-.21-.23-.79-.28a5.82,5.82,0,0,0-2.41.42,5.27,5.27,0,0,0-2,1.31C255.37,140.64,255.3,140.92,255.41,140.94Z" style="fill:#263238"></path><path d="M249.11,150.2a10.53,10.53,0,0,0-2.41-.52c-.38-.05-.74-.14-.79-.4a1.85,1.85,0,0,1,.31-1.1c.39-.9.81-1.83,1.25-2.81,1.75-4,3-7.31,2.86-7.38s-1.71,3.13-3.46,7.13c-.42,1-.82,1.93-1.2,2.84a2.1,2.1,0,0,0-.27,1.46,1,1,0,0,0,.61.57,2.37,2.37,0,0,0,.64.12A9.16,9.16,0,0,0,249.11,150.2Z" style="fill:#263238"></path><path d="M248.84,167.6s5.75.69,13.16-3.29c0,0-2.61,7.41-13.41,6Z" style="fill:#eb996e"></path><path d="M249.59,153.77a2.72,2.72,0,0,1,2.46-.89,2.47,2.47,0,0,1,1.66,1,1.52,1.52,0,0,1,0,1.76,1.85,1.85,0,0,1-2,.41,5.5,5.5,0,0,1-1.86-1.2,1.46,1.46,0,0,1-.41-.45.48.48,0,0,1,0-.54" style="fill:#6C3EB4"></path><path d="M253.47,151.39c-.24,0-.32,1.57-1.76,2.65s-3.15.84-3.18,1.06.38.32,1.1.37a4.13,4.13,0,0,0,2.66-.79,3.48,3.48,0,0,0,1.36-2.23C253.74,151.79,253.58,151.39,253.47,151.39Z" style="fill:#263238"></path><path d="M254.84,134.83c.18.39,1.65.08,3.42.14s3.21.41,3.42,0c.09-.18-.19-.54-.79-.88a5.69,5.69,0,0,0-2.58-.66,5.86,5.86,0,0,0-2.63.53C255.06,134.31,254.76,134.65,254.84,134.83Z" style="fill:#263238"></path><path d="M240.31,133c.24.34,1.29,0,2.53.07s2.28.31,2.53,0c.12-.17,0-.51-.48-.84a3.69,3.69,0,0,0-4.08,0C240.36,132.47,240.2,132.81,240.31,133Z" style="fill:#263238"></path><path d="M251.52,115.88a9,9,0,0,0,4.21,11.69c1.82,1,4.14,1.5,5,3.35.7,1.43.31,3.27,1.21,4.6s2.53,1.58,3.75,2.47c1.67,1.22,2.34,3.4,2.52,5.46a53,53,0,0,0,.38,6.18c.41,2,1.62,4.08,3.6,4.68,1.24-5.84,2.38-11.79,2.06-17.76s-2.25-12-6.41-16.34-10.78-6.45-16.37-4.33" style="fill:#263238"></path><path d="M257.48,115.12c7.19.27,15.21,5.16,17.66,11.92,1.23,3.41,1.53,7.32,3.91,10,1.5,1.73,3.71,2.8,4.94,4.72,2.63,4.12-.4,9.78,1.24,14.38.74,2.06,2.33,3.68,3.58,5.48s2.15,4.12,1.31,6.14a5.43,5.43,0,0,1-3.37,2.87,16.27,16.27,0,0,1-4.51.63L259,172.36a6.62,6.62,0,0,1,.43-5.35c1.54-2.45,5.33-4.7,4.49-8.21s-2.57-3.08-2.62-6.74,2.48-7.15,2.06-10.33-1.47-2.43-2.8-7.44-4.13-6.37-4.13-6.37l2.19-12" style="fill:#263238"></path><path d="M231.18,151.79c.84-1.26,1.71-2.7,1.44-4.19a28.3,28.3,0,0,0-1.23-2.92,5,5,0,0,1,.38-3.89c.48-1.23,1.15-2.4,1.54-3.67.32-1,.45-2.08.87-3.06a3.23,3.23,0,0,1,2.24-2.07c.73,4.72-1.1,9.44-1.35,14.22a8.19,8.19,0,0,1-.48,3.08,2.26,2.26,0,0,1-2.51,1.4" style="fill:#263238"></path><path d="M232.87,137.16c-.08-.13,1.73-1.33,3.58-3.24s3-3.76,3.14-3.68a11.19,11.19,0,0,1-2.77,4A11,11,0,0,1,232.87,137.16Z" style="fill:#455a64"></path><path d="M238,137.77a4.61,4.61,0,0,1-2.59.77,4.68,4.68,0,0,1-2.68-.38,15.76,15.76,0,0,1,2.64-.14A14.27,14.27,0,0,1,238,137.77Z" style="fill:#455a64"></path><path d="M192.49,169.9l.94,36.36,26.86-15.4,2,18S195.43,228,182,224.37c-2.2-.6-6.3-5.7-6.07-8l4.34-46.6Z" style="fill:#ffbe9d"></path><path d="M190.86,173s2.68-2.17,3.07-4.52-.55-16.09-.55-16.09-1.83-.25-2.57,2.46a57,57,0,0,0-1,6.46l-3.75-10.09c-.84-2.26-2.24-5.64-3.5-5.52s.28,4.52.55,6.5.72,4.79.72,4.79-3.51-8.85-5.13-11c-1.17-1.56-2.94.17-2,2.19,0,0-1.83-1.59-2,.33s3.41,10.6,2.77,10.75-4-6.74-5.17-6.91c-.69-.1-1,.89-.27,2.68s6.6,15.23,7.84,16.87a4.81,4.81,0,0,0,2.31,1.9Z" style="fill:#ffbe9d"></path><path d="M188,167.32s-.33-.28-.88-.68a8.3,8.3,0,0,0-5-1.59c-.69,0-1.11.09-1.11,0a.94.94,0,0,1,.29-.08,4.39,4.39,0,0,1,.81-.11,7.51,7.51,0,0,1,5.08,1.61,6.27,6.27,0,0,1,.61.56C188,167.23,188.05,167.31,188,167.32Z" style="fill:#eb996e"></path><path d="M189.56,163c.05,0-.54.84-1,2s-.55,2.12-.61,2.11a6.25,6.25,0,0,1,1.58-4.09Z" style="fill:#eb996e"></path><path d="M176.56,147.42c.05,0,1.1,2.35,2.34,5.3s2.2,5.36,2.15,5.38-1.1-2.35-2.34-5.3S176.51,147.44,176.56,147.42Z" style="fill:#eb996e"></path><path d="M192.59,215.9c-.06-.07.38-.46.81-1.28a7.18,7.18,0,0,0,.79-3.45,15.81,15.81,0,0,0-.58-3.58,5,5,0,0,1-.31-1.51,4.45,4.45,0,0,1,.66,1.4,11.65,11.65,0,0,1,.75,3.69,6.45,6.45,0,0,1-1,3.64C193.17,215.64,192.62,215.94,192.59,215.9Z" style="fill:#eb996e"></path><path d="M319.23,150.51s1.41,11.24,3,23.22c1.56,11.53,1.48,16.51,1.48,16.51l-22.43-6.32-6.41,14.92s30.25,13.71,40.32,9.45h0c6.5-2.95,9-11.06,7.09-16l-12-42.58Z" style="fill:#ffbe9d"></path><path d="M320.05,153.37s-2.9-1.85-3.55-4.15-1.25-16.05-1.25-16.05,1.8-.45,2.84,2.16a58.85,58.85,0,0,1,1.71,6.31l2.59-10.45c.59-2.34,1.6-5.85,2.87-5.88s.23,4.53.18,6.53-.18,4.83-.18,4.83,2.5-9.19,3.86-11.49c1-1.68,2.94-.16,2.21,1.95,0,0,1.65-1.78,2.05.11s-2.2,10.92-1.55,11,3.18-7.14,4.37-7.44c.67-.18,1.11.77.56,2.63s-4.86,15.87-5.91,17.64a4.84,4.84,0,0,1-2.08,2.15Z" style="fill:#ffbe9d"></path><path d="M322.23,147.38s.29-.31.79-.77a8.52,8.52,0,0,1,2.22-1.46,8.74,8.74,0,0,1,2.56-.68c.68-.06,1.11,0,1.11-.07s-.1,0-.29-.05a5.18,5.18,0,0,0-.83,0,7.61,7.61,0,0,0-2.63.64,7.5,7.5,0,0,0-2.23,1.53,4.76,4.76,0,0,0-.54.62C322.27,147.28,322.22,147.37,322.23,147.38Z" style="fill:#eb996e"></path><path d="M320.23,143.27a20.28,20.28,0,0,1,1.19,1.85c.57,1.08.77,2,.84,2a5.26,5.26,0,0,0-.66-2.13A5,5,0,0,0,320.23,143.27Z" style="fill:#eb996e"></path><path d="M331.41,126.32c-.05,0-.83,2.46-1.73,5.53s-1.59,5.57-1.54,5.59.83-2.46,1.73-5.53S331.47,126.34,331.41,126.32Z" style="fill:#eb996e"></path><path d="M325.67,201A15.79,15.79,0,0,1,324,189.61a55.81,55.81,0,0,0,.3,5.78A57.58,57.58,0,0,0,325.67,201Z" style="fill:#eb996e"></path><path d="M232.73,368.21s1.46,11.21,5.52,38.26c2.37,15.81,6.58,49.67,6.58,49.67l15.23.33-.47-69.73V370.68c0-5.26-7.1-12.86-7.1-12.86Z" style="fill:#ffbe9d"></path><path d="M262,363.18c-.47,5.16,2.19,86.14,2.19,86.14l13.34,5.36s6.43-43.9,8.28-56c1.44-9.39,6-40.37,6-40.37Z" style="fill:#ffbe9d"></path><path d="M227.38,260s-32.77,65.82-33.13,106.16a28,28,0,0,1,8.36,0c4,.73,6.54,5.81,11.26,6.18s5.94-3.27,9.7-4,3,4.78,7.75,4,5.08-5.47,9.44-4.75,2.19,3.83,9.45,4.82,9.77-4.82,13.79-3.73,2.57,5.51,8.75,3.85,5.81-5.66,10.53-4.94,4.17,8.8,10.08,5.31,5.68-9.67,10.88-7.85,4.12,4.72,8.12,2.54a16.74,16.74,0,0,1,7.27-2.18s-8.89-80.11-26.27-107.29L264,241.49Z" style="fill:#263238"></path><path d="M217.9,319a2.88,2.88,0,0,1,0-.62c.06-.45.13-1,.21-1.75.19-1.52.51-3.71,1-6.42.89-5.4,2.34-12.84,4.41-20.94s4.35-15.33,6.16-20.5c.9-2.59,1.67-4.67,2.23-6.09.27-.67.48-1.22.65-1.64a2.25,2.25,0,0,1,.27-.56,3,3,0,0,1-.17.59c-.14.44-.33,1-.56,1.68-.5,1.44-1.21,3.54-2.07,6.14-1.72,5.19-3.94,12.42-6,20.51s-3.57,15.49-4.55,20.88c-.49,2.69-.87,4.87-1.12,6.38-.12.71-.23,1.28-.31,1.74A2.46,2.46,0,0,1,217.9,319Z" style="fill:#455a64"></path><path d="M225.82,345.92c.15,0,.2,5,.11,11.12s-.27,11.11-.41,11.11-.19-5-.11-11.12S225.68,345.92,225.82,345.92Z" style="fill:#455a64"></path><path d="M242.78,315.72a2.2,2.2,0,0,1,0,.54c-.05.41-.11.92-.2,1.54-.19,1.41-.46,3.32-.78,5.65-.66,4.78-1.5,11.38-2.24,18.69s-1.22,14-1.52,18.77c-.15,2.35-.27,4.28-.36,5.7,0,.62-.08,1.13-.11,1.55a2,2,0,0,1-.07.53,1.85,1.85,0,0,1,0-.54c0-.41,0-.93,0-1.55,0-1.35.08-3.3.19-5.71.21-4.82.64-11.47,1.37-18.8s1.64-13.93,2.39-18.69c.38-2.38.71-4.31,1-5.63l.3-1.53A1.74,1.74,0,0,1,242.78,315.72Z" style="fill:#455a64"></path><path d="M261.54,287.73a5.18,5.18,0,0,1-.24-1.1c-.13-.72-.29-1.76-.46-3-.35-2.57-.76-6.13-1.07-10.08s-.48-7.53-.54-10.12c0-1.3,0-2.35,0-3.07a4.79,4.79,0,0,1,.06-1.13,4.16,4.16,0,0,1,.14,1.12c0,.84.11,1.86.19,3.06.15,2.59.38,6.16.69,10.1s.66,7.5.91,10.07q.18,1.81.3,3.06A4.44,4.44,0,0,1,261.54,287.73Z" style="fill:#455a64"></path><path d="M266.76,298.16a10.12,10.12,0,0,1-.07-1.6c0-1,0-2.53-.07-4.38-.11-3.69-.41-8.78-1.14-14.36a142.53,142.53,0,0,0-2.63-14.17c-.42-1.8-.79-3.25-1.05-4.25a8.4,8.4,0,0,1-.35-1.57,10.83,10.83,0,0,1,.54,1.52c.33,1,.75,2.42,1.22,4.21A114.56,114.56,0,0,1,267,292.18c0,1.85,0,3.35-.08,4.38A9.49,9.49,0,0,1,266.76,298.16Z" style="fill:#455a64"></path><path d="M263.18,333.18c.15,0,.56,7.95.93,17.76s.55,17.78.41,17.79-.56-8-.93-17.77S263,333.19,263.18,333.18Z" style="fill:#455a64"></path><path d="M284.43,369a2.57,2.57,0,0,1-.1-.59c0-.44-.1-1-.17-1.69-.15-1.53-.35-3.64-.6-6.21-.51-5.25-1.27-12.49-2.29-20.47s-2.13-15.18-3-20.37c-.46-2.59-.86-4.69-1.15-6.13-.12-.68-.23-1.23-.31-1.67a2.37,2.37,0,0,1-.08-.59,2.4,2.4,0,0,1,.18.57c.11.43.25,1,.41,1.64.35,1.44.81,3.53,1.31,6.12,1,5.17,2.19,12.37,3.21,20.36s1.72,15.25,2.13,20.5c.22,2.63.36,4.76.44,6.24,0,.69.06,1.25.08,1.7A2.46,2.46,0,0,1,284.43,369Z" style="fill:#455a64"></path><path d="M298.65,296a7.54,7.54,0,0,1-.54-1.44c-.33-1-.77-2.36-1.3-4-1.09-3.36-2.62-8-4.4-13.07s-3.49-9.65-4.74-13l-1.48-3.91a9.43,9.43,0,0,1-.48-1.46,8.73,8.73,0,0,1,.67,1.38c.4.9,1,2.22,1.63,3.85,1.34,3.28,3.1,7.83,4.89,12.92s3.26,9.74,4.26,13.13c.51,1.69.9,3.07,1.15,4A9.62,9.62,0,0,1,298.65,296Z" style="fill:#455a64"></path><path d="M302.78,363.6a.91.91,0,0,1-.08-.27l-.17-.78c-.14-.74-.34-1.75-.6-3-.53-2.68-1.28-6.48-2.2-11.17-1.88-9.42-4.63-22.41-8-36.67s-6.81-27.1-9.38-36.36l-3.08-11-.83-3c-.08-.32-.15-.57-.21-.78a1.07,1.07,0,0,1-.05-.27,1,1,0,0,1,.11.26l.25.76c.22.71.53,1.7.93,3,.79,2.57,1.9,6.3,3.23,10.92,2.66,9.24,6.13,22.06,9.54,36.34s6.09,27.28,7.88,36.72c.9,4.72,1.6,8.55,2,11.2q.33,1.95.51,3.06c.05.32.08.58.12.79A1.18,1.18,0,0,1,302.78,363.6Z" style="fill:#455a64"></path><path d="M216.42,306.26a1.37,1.37,0,1,1-1.37-1.37A1.37,1.37,0,0,1,216.42,306.26Z" style="fill:#f5f5f5"></path><path d="M267.78,312.77a1.37,1.37,0,1,1-1.37-1.38A1.37,1.37,0,0,1,267.78,312.77Z" style="fill:#f5f5f5"></path><path d="M276.25,359.64a1.37,1.37,0,1,1-1.37-1.37A1.37,1.37,0,0,1,276.25,359.64Z" style="fill:#f5f5f5"></path><path d="M294.52,350.89a1.38,1.38,0,1,1-1.37-1.38A1.38,1.38,0,0,1,294.52,350.89Z" style="fill:#f5f5f5"></path><path d="M287.08,314.14a1.37,1.37,0,1,1-1.37-1.37A1.37,1.37,0,0,1,287.08,314.14Z" style="fill:#f5f5f5"></path><path d="M274.88,269.14a1.37,1.37,0,1,1-1.37-1.37A1.37,1.37,0,0,1,274.88,269.14Z" style="fill:#f5f5f5"></path><path d="M304.24,307a1.37,1.37,0,1,1-1.37-1.37A1.37,1.37,0,0,1,304.24,307Z" style="fill:#f5f5f5"></path><path d="M309.16,342.21a1.37,1.37,0,1,1-1.37-1.38A1.38,1.38,0,0,1,309.16,342.21Z" style="fill:#f5f5f5"></path><path d="M234.2,337.62a1.38,1.38,0,1,1-1.37-1.37A1.38,1.38,0,0,1,234.2,337.62Z" style="fill:#f5f5f5"></path><path d="M248,281.09a1.37,1.37,0,1,1-1.37-1.37A1.37,1.37,0,0,1,248,281.09Z" style="fill:#f5f5f5"></path><path d="M215.05,329.93a1.37,1.37,0,1,1-1.37-1.37A1.37,1.37,0,0,1,215.05,329.93Z" style="fill:#f5f5f5"></path><path d="M216.42,360.94a1.37,1.37,0,1,1-1.37-1.38A1.37,1.37,0,0,1,216.42,360.94Z" style="fill:#f5f5f5"></path><path d="M206.49,345.92a1.37,1.37,0,1,1-1.37-1.37A1.37,1.37,0,0,1,206.49,345.92Z" style="fill:#f5f5f5"></path><path d="M249.53,303.51a1.37,1.37,0,1,1-1.37-1.37A1.37,1.37,0,0,1,249.53,303.51Z" style="fill:#f5f5f5"></path><path d="M256.41,333.18a1.38,1.38,0,1,1-1.38-1.37A1.37,1.37,0,0,1,256.41,333.18Z" style="fill:#f5f5f5"></path><circle cx="246.66" cy="359.56" r="1.37" style="fill:#f5f5f5"></circle><path d="M233.38,277.71a1.37,1.37,0,1,1,0-2.74" style="fill:#f5f5f5"></path><path d="M238,355a1.37,1.37,0,1,1,.21-2.74" style="fill:#f5f5f5"></path><path d="M229.75,314.14a1.37,1.37,0,0,1,.21-2.74" style="fill:#f5f5f5"></path><path d="M266.41,286.29a1.37,1.37,0,1,1-.31-2.72" style="fill:#f5f5f5"></path><path d="M294.44,282.93a1.37,1.37,0,0,1-1-2.54" style="fill:#f5f5f5"></path><path d="M281.32,339a1.37,1.37,0,1,1-.31-2.72" style="fill:#f5f5f5"></path><path d="M229.22,328.09a4.84,4.84,0,0,1,0-.7c0-.51,0-1.17.08-2,.07-1.73.2-4.23.4-7.32.39-6.19,1.05-14.72,2-24.13s2-17.9,2.91-24c.43-3.06.8-5.54,1.08-7.25.14-.82.25-1.47.34-2a3.23,3.23,0,0,1,.15-.68,4.44,4.44,0,0,1,0,.69c-.06.51-.14,1.17-.24,2-.22,1.77-.53,4.24-.92,7.27-.77,6.15-1.79,14.64-2.75,24s-1.67,17.93-2.15,24.1c-.24,3.05-.43,5.53-.57,7.32-.07.82-.13,1.48-.17,2A3.6,3.6,0,0,1,229.22,328.09Z" style="fill:#455a64"></path><path d="M234.73,179.58l15.62-5.18,33.23.93s-2.19,12-2.58,12.63-24.13,7.89-24.13,7.89Z" style="fill:#ffbe9d"></path><path d="M295.74,254.31c-.47-1-6.37-22.24-6.37-22.24l1.1-22.64,2.89-31.19-17.08-2.91c-11,6.42-28.51,9.1-39.71,3.89,0,0-6.08.29-9,3-1.15,1.06.7,10.2,2.37,19.21,1.76,9.48,6.7,33,6.7,33s-8.37,20.22-10.16,26c0,0,51.21-9.29,68.36,0C294.79,260.51,298.42,260,295.74,254.31Z" style="fill:#6C3EB4"></path><path d="M208.74,193.75,227.84,182,233,208.25l-9.85,8.36S208.21,208.89,208.74,193.75Z" style="fill:#6C3EB4"></path><path d="M291.48,178l19.41,8.39s-6.32,24.36-10.05,27.16L291,209.43l-2.42,7.63-.14-30.54Z" style="fill:#6C3EB4"></path><path d="M224.94,214.16a4.56,4.56,0,0,1-1-.49,21.41,21.41,0,0,1-2.43-1.62A27.37,27.37,0,0,1,215,205a25.78,25.78,0,0,1-2.36-4.78,21.59,21.59,0,0,1-1.08-4.21,13.92,13.92,0,0,1-.18-1.66,8.18,8.18,0,0,1-.05-1.26,4,4,0,0,1,.07-1.07c.11,0,.08,1.53.52,3.93a25.07,25.07,0,0,0,1.17,4.11,28.3,28.3,0,0,0,2.35,4.66,30.17,30.17,0,0,0,6.35,7C223.67,213.3,225,214.07,224.94,214.16Z" style="fill:#e0e0e0"></path><path d="M230.38,204.54s-.27-.11-.72-.39l-.75-.61-.91-.87a48.15,48.15,0,0,1-4.53-5.71,63.72,63.72,0,0,1-3.81-6.21,10.07,10.07,0,0,1-1.15-2.79c.07,0,.53,1,1.48,2.61s2.3,3.77,3.91,6.1a70.49,70.49,0,0,0,4.37,5.75l.85.91.67.66C230.18,204.31,230.4,204.51,230.38,204.54Z" style="fill:#e0e0e0"></path><path d="M289.3,179.82a2.86,2.86,0,0,1-.61.18l-1.74.41c-1.51.36-3.69.94-6.35,1.74l-9.35,2.91a76.59,76.59,0,0,1-11.7,2.71,46.64,46.64,0,0,1-12,.09,47.81,47.81,0,0,1-9.56-2.2,43.38,43.38,0,0,1-6.08-2.6c-.7-.35-1.21-.68-1.57-.88a3.29,3.29,0,0,1-.52-.34,2.8,2.8,0,0,1,.57.25c.37.17.9.47,1.61.79a50.22,50.22,0,0,0,6.11,2.43,48.75,48.75,0,0,0,9.5,2.07,47.52,47.52,0,0,0,11.89-.12,79.38,79.38,0,0,0,11.63-2.66c3.53-1,6.7-2,9.38-2.8s4.88-1.29,6.42-1.59c.76-.16,1.36-.25,1.77-.32A4,4,0,0,1,289.3,179.82Z" style="fill:#e0e0e0"></path><path d="M291.35,197.54a2.91,2.91,0,0,1-.62.13l-1.79.28c-1.55.24-3.8.52-6.6.8-5.59.57-13.34,1-21.91,1s-16.33-.31-21.93-.58l-6.64-.36-1.8-.13a2.49,2.49,0,0,1-.63-.08,2.36,2.36,0,0,1,.63,0l1.81,0,6.64.19c5.61.18,13.36.44,21.92.43s16.29-.4,21.88-.88c2.79-.23,5.05-.45,6.61-.63l1.8-.18A2.5,2.5,0,0,1,291.35,197.54Z" style="fill:#e0e0e0"></path><path d="M290.47,209.43a4.2,4.2,0,0,1-.57.2l-1.64.47c-.72.22-1.6.41-2.64.63s-2.21.47-3.52.67a150.94,150.94,0,0,1-20.69,1.79c-8.11.23-15.46-.05-20.76-.4-2.65-.19-4.79-.41-6.26-.59l-1.7-.26a2.39,2.39,0,0,1-.58-.12,2.48,2.48,0,0,1,.6,0l1.7.16c1.48.12,3.62.28,6.27.42,5.29.26,12.63.48,20.72.25A172.1,172.1,0,0,0,282,211c1.31-.17,2.49-.39,3.52-.59s1.93-.36,2.65-.55l1.66-.38A2.23,2.23,0,0,1,290.47,209.43Z" style="fill:#e0e0e0"></path><path d="M288.79,225.57a2.13,2.13,0,0,1-.54.1l-1.57.19c-1.36.14-3.34.32-5.78.51-4.89.37-11.66.74-19.14.84s-14.27-.17-19.15-.6c-2.45-.23-4.42-.45-5.78-.67l-1.56-.25a1.84,1.84,0,0,1-.53-.12,2.08,2.08,0,0,1,.55,0l1.57.15c1.36.16,3.33.32,5.77.5,4.89.33,11.65.55,19.12.45s14.23-.41,19.12-.69l5.79-.35,1.58-.08A1.93,1.93,0,0,1,288.79,225.57Z" style="fill:#e0e0e0"></path><path d="M292,241.49a2.74,2.74,0,0,1-.6,0l-1.7-.12-6.27-.46c-5.3-.37-12.62-.73-20.72-.73s-15.42.37-20.72.73l-6.26.46-1.71.12a2.74,2.74,0,0,1-.6,0,2.2,2.2,0,0,1,.59-.11l1.7-.22c1.47-.18,3.61-.4,6.26-.63,5.29-.45,12.63-.88,20.74-.88s15.45.42,20.75.88c2.64.23,4.78.45,6.26.63l1.69.22A2.2,2.2,0,0,1,292,241.49Z" style="fill:#e0e0e0"></path><path d="M298.09,184.77a19.62,19.62,0,0,1-2.6,5.48,19.92,19.92,0,0,1-3.77,4.76c-.11-.1,1.58-2.21,3.32-5S298,184.71,298.09,184.77Z" style="fill:#e0e0e0"></path><path d="M228.22,192a11.81,11.81,0,0,1,.38,1.66c.24,1.16.56,2.69.94,4.54.81,3.92,1.91,9.17,3.12,15s2.27,11.16,3,15c.35,1.93.61,3.5.77,4.58a11,11,0,0,1,.19,1.69,10,10,0,0,1-.39-1.66c-.24-1.15-.55-2.68-.93-4.54-.82-3.91-1.91-9.17-3.12-15s-2.27-11.15-3-15c-.35-1.93-.61-3.49-.78-4.57A10,10,0,0,1,228.22,192Z" style="fill:#263238"></path><path d="M291.72,199a5.78,5.78,0,0,1,0,1.31c0,.94-.1,2.13-.17,3.55-.16,3-.43,7.13-.75,11.7s-.65,8.7-.91,11.69c-.14,1.42-.25,2.6-.34,3.54a7.15,7.15,0,0,1-.19,1.3,5.78,5.78,0,0,1,0-1.31c.05-.94.1-2.13.17-3.55.17-3,.43-7.13.76-11.7s.65-8.71.91-11.7c.13-1.41.24-2.6.33-3.54A7.12,7.12,0,0,1,291.72,199Z" style="fill:#263238"></path><path d="M305.73,184.5a4.41,4.41,0,0,1-.41,1.05l-1.22,2.79c-1,2.37-2.34,5.67-3.53,9.41s-2,7.2-2.57,9.72c-.25,1.17-.45,2.17-.62,3a4,4,0,0,1-.28,1.09,5.52,5.52,0,0,1,.08-1.12c.08-.72.23-1.75.45-3a78.21,78.21,0,0,1,2.44-9.8,77.42,77.42,0,0,1,3.69-9.4c.55-1.16,1-2.1,1.38-2.73A5.27,5.27,0,0,1,305.73,184.5Z" style="fill:#e0e0e0"></path><path d="M295.67,255.09a6.62,6.62,0,0,1-.7-.14l-2-.5c-.86-.23-1.91-.49-3.16-.74s-2.64-.6-4.21-.83l-2.46-.42c-.86-.15-1.76-.23-2.69-.36-1.85-.27-3.85-.41-5.94-.58a109.32,109.32,0,0,0-13.68,0,110.89,110.89,0,0,0-13.55,1.82c-2.06.46-4,.86-5.82,1.37-.9.25-1.78.46-2.61.71l-2.39.75c-1.53.44-2.87,1-4.06,1.39s-2.21.81-3,1.15l-1.9.75a3.07,3.07,0,0,1-.69.23l.64-.32,1.88-.85c.81-.37,1.81-.8,3-1.24s2.52-1,4-1.46l2.38-.78c.83-.27,1.72-.49,2.62-.74,1.8-.54,3.77-1,5.83-1.43A98.19,98.19,0,0,1,274.54,251c2.11.19,4.11.34,6,.63.93.14,1.83.24,2.69.39l2.47.45c1.57.27,3,.64,4.21.92s2.29.57,3.15.83l2,.59A3.32,3.32,0,0,1,295.67,255.09Z" style="fill:#e0e0e0"></path><g style="opacity:0.30000000000000004"><path d="M278.79,232.69l.44,0,.31-.11Z"></path><path d="M279.23,232.66c-5.51,2.14-11.6,2.4-17.5,1.91s-11.94-1.71-17.94-2.32a4,4,0,0,0-2.06.16,1.43,1.43,0,0,0-.86,1.7c.25.62,1,.84,1.67,1a88.31,88.31,0,0,0,33.09.25c1.78-.33,3.87-1,4.39-2.72Z"></path></g><path d="M243.27,449.49v1.12s-19,7.36-19.23,10.94l37.52.26-.43-12.49A21.43,21.43,0,0,1,243.27,449.49Z" style="fill:#6C3EB4"></path><g style="opacity:0.6000000000000001"><path d="M257.3,453.29a1.52,1.52,0,0,1,1,1.76,1.47,1.47,0,0,1-1.73,1.05,1.62,1.62,0,0,1-1.1-1.87,1.52,1.52,0,0,1,1.92-.89" style="fill:#fff"></path></g><g style="opacity:0.6000000000000001"><path d="M261.55,461.81l-.11-3-35.92.85s-1.67.71-1.49,1.89Z" style="fill:#fff"></path></g><path d="M243.12,450.71c0,.19.92.28,1.82.87s1.37,1.37,1.54,1.3-.09-1.13-1.19-1.83S243.09,450.54,243.12,450.71Z" style="fill:#263238"></path><path d="M239.18,452.31c-.05.18.75.5,1.36,1.28s.79,1.6,1,1.59.3-1-.48-2S239.18,452.14,239.18,452.31Z" style="fill:#263238"></path><path d="M236.91,457c.17,0,.43-.88,0-1.88s-1.31-1.41-1.39-1.26.45.69.81,1.52S236.73,457,236.91,457Z" style="fill:#263238"></path><path d="M264.09,448.85s9.68,6,13.93.17l1.32,2.66,6.3,19.06a2.58,2.58,0,0,1-1.34,3.18,2.63,2.63,0,0,1-2.75-.37c-4-3.37-18.79-15.85-18.74-17.65l-.19-4.74a2.45,2.45,0,0,1,1.47-2.31Z" style="fill:#6C3EB4"></path><g style="opacity:0.6000000000000001"><path d="M283.84,474.07l-21.12-19.82.06,1c0,1.13.48,1.55,1.06,2.24,1.73,2.05,6.47,6.6,17.63,16a2.61,2.61,0,0,0,2.37.52Z" style="fill:#fff"></path></g><g style="opacity:0.6000000000000001"><path d="M265.5,451a1.48,1.48,0,0,1,.54,2,1.52,1.52,0,0,1-2,.54,1.45,1.45,0,1,1,1.58-2.41" style="fill:#fff"></path></g><path d="M277.52,463.7c.15.06.64-1.26,2.1-2a8,8,0,0,1,2.86-.69c0-.06-.31-.24-.9-.29a4.18,4.18,0,0,0-2.23.51,4,4,0,0,0-1.61,1.6C277.48,463.32,277.46,463.68,277.52,463.7Z" style="fill:#263238"></path><path d="M279.49,466.87a20.52,20.52,0,0,1,2.17-1.17,20.19,20.19,0,0,1,2.43-.44,2.93,2.93,0,0,0-2.62-.07C280,465.7,279.35,466.82,279.49,466.87Z" style="fill:#263238"></path><path d="M274,459.68a25.1,25.1,0,0,1,3.22-2,24.8,24.8,0,0,1,3.68-1,5.88,5.88,0,0,0-3.91.56A5.63,5.63,0,0,0,274,459.68Z" style="fill:#263238"></path><path d="M273.22,453.82c.07.14,1.43-.5,3.23-.66s3.26.18,3.3,0a5.13,5.13,0,0,0-3.35-.56A5,5,0,0,0,273.22,453.82Z" style="fill:#263238"></path><path d="M277.48,453.05a2,2,0,0,0-.19-.91A6.55,6.55,0,0,0,276,450a2.94,2.94,0,0,0-1.55-1,1,1,0,0,0-1.08.48,1.6,1.6,0,0,0-.13,1.17,3.64,3.64,0,0,0,3.89,2.46,4.21,4.21,0,0,0,3.53-3,1.43,1.43,0,0,0-.22-1.17,1,1,0,0,0-1.16-.27,3.55,3.55,0,0,0-1.41,1.2,7.34,7.34,0,0,0-1.22,2.24,2.18,2.18,0,0,0-.17.91,11.3,11.3,0,0,1,1.69-2.91,3.37,3.37,0,0,1,1.26-1,.55.55,0,0,1,.63.15,1,1,0,0,1,.1.77,3.78,3.78,0,0,1-3.09,2.61,3.16,3.16,0,0,1-3.33-2.05,1.11,1.11,0,0,1,0-.81.56.56,0,0,1,.59-.28,2.64,2.64,0,0,1,1.33.85A9.68,9.68,0,0,1,277.48,453.05Z" style="fill:#263238"></path><path d="M295.45,180.13c-1-.8-2.26-1.6-2.55-2.88a7,7,0,0,1,.46-3.13,11.52,11.52,0,0,0-1.72-8.57,31.38,31.38,0,0,0-5.09-6.92l-27.91,11.45c.14,3,1.09,3.5.37,5s-2.28,2.6-2.22,4.22c0,1.42,1.4,2.55,1.42,4s-1.43,2.56-2.21,3.85c-1.21,2-.81,4.51-.38,6.79.09.45.22,1,.64,1.15a1.39,1.39,0,0,0,.88,0l15.35-2.84.78-2.82a2,2,0,0,0,1.58,1.9,5.7,5.7,0,0,0,2.65-.18c6-1.37,12.05-2.84,17.54-5.63.93-.47,1.95-1.1,2.19-2.13C297.52,182.11,296.49,180.92,295.45,180.13Z" style="fill:#263238"></path><path d="M277.34,134.9a6.47,6.47,0,0,1-1.23,0,12.27,12.27,0,0,1-1.43-.12c-.55-.07-1.19-.13-1.88-.28a32.41,32.41,0,0,1-4.79-1.26,39.06,39.06,0,0,1-5.54-2.45,43,43,0,0,1-5.08-3.33,36.61,36.61,0,0,1-3.69-3.3c-.5-.49-.91-1-1.28-1.4a13,13,0,0,1-.91-1.11,5.4,5.4,0,0,1-.7-1c.08-.06,1.14,1.32,3.15,3.26a45.14,45.14,0,0,0,3.73,3.18,45.61,45.61,0,0,0,5,3.25,43.25,43.25,0,0,0,5.45,2.46,37.41,37.41,0,0,0,4.7,1.35C275.6,134.72,277.34,134.8,277.34,134.9Z" style="fill:#455a64"></path><path d="M277.06,135.2a8.17,8.17,0,0,1-2.22.71,27.65,27.65,0,0,1-5.59.71,28.73,28.73,0,0,1-5.62-.4,7.9,7.9,0,0,1-2.26-.6,70.73,70.73,0,0,0,7.87.48A73.28,73.28,0,0,0,277.06,135.2Z" style="fill:#455a64"></path><path d="M280.31,175s.24-.57.68-1.6a10.73,10.73,0,0,0,1.07-4.49,6.1,6.1,0,0,0-1-3,12.94,12.94,0,0,0-2.48-2.7c-1-.87-2.08-1.72-3.14-2.73a8.59,8.59,0,0,1-2.49-3.78,8.13,8.13,0,0,1,.18-4.52c.39-1.4.93-2.69,1.25-3.94a9,9,0,0,0,.31-3.62,4.59,4.59,0,0,0-1.43-2.72c-.71-.67-1.48-1.16-2.09-1.68a6.37,6.37,0,0,1-1.39-1.53,3.17,3.17,0,0,1-.47-1.22,1,1,0,0,1,0-.45,4.24,4.24,0,0,0,.64,1.56,6.38,6.38,0,0,0,1.4,1.41c.62.49,1.39,1,2.16,1.64a5,5,0,0,1,1.61,2.92,9.35,9.35,0,0,1-.27,3.8c-.33,1.31-.86,2.6-1.23,4a7.73,7.73,0,0,0-.17,4.24,8.18,8.18,0,0,0,2.35,3.56c1,1,2.11,1.84,3.1,2.73a12.86,12.86,0,0,1,2.52,2.84,6.3,6.3,0,0,1,1,3.18,10.28,10.28,0,0,1-1.26,4.59c-.25.5-.46.88-.61,1.14S280.33,175,280.31,175Z" style="fill:#455a64"></path></g><g id="freepik--speech-bubble--inject-4"><path d="M280.15,121.05l5.3-9.35a25.09,25.09,0,1,1,6,6.68h0Z" style="fill:#fafafa"></path><path d="M280.15,121.05l11.34-2.55.17,0-.1-.14h0l-.16.16a25,25,0,0,0,12,5.08,22.46,22.46,0,0,0,4,.21c.68,0,1.38-.06,2.08-.11l2.12-.32a25.35,25.35,0,0,0,15.69-10.06,25.07,25.07,0,0,0,4.24-9.7,25.54,25.54,0,0,0-.29-11.16,24.91,24.91,0,0,0-5.38-10.33,25.16,25.16,0,0,0-20.93-8.63,24.77,24.77,0,0,0-10.32,3.06,25.42,25.42,0,0,0-11.9,14.66,26.93,26.93,0,0,0-1.09,8.16,24.88,24.88,0,0,0,3.76,12.43v-.11l-5.21,9.4c.39-.66,2-3.45,5.4-9.3l0,0,0-.06a24.82,24.82,0,0,1-3.63-12.32,27,27,0,0,1,1.11-8,25.11,25.11,0,0,1,11.76-14.39,24.17,24.17,0,0,1,10.16-3,25.18,25.18,0,0,1,11,1.7,24.78,24.78,0,0,1,9.5,6.79,24.27,24.27,0,0,1,5.28,10.13,25.3,25.3,0,0,1,.31,11,24.69,24.69,0,0,1-4.16,9.53,25,25,0,0,1-15.41,10l-2.09.32c-.69.06-1.37.08-2.05.12a22,22,0,0,1-3.92-.18,24.92,24.92,0,0,1-11.92-4.94l-.28,0,.12.13h0l.07-.18Z" style="fill:#263238"></path><path d="M295.6,97.27a6.42,6.42,0,0,1,1.7-3.5,6.17,6.17,0,0,1,3.26-2,5.1,5.1,0,0,1,3.92.81,5,5,0,0,1,1.58,1.83,5,5,0,0,1,5.44-2.34,6.26,6.26,0,0,1,3.23,2,6.52,6.52,0,0,1,1.62,3.54,7.82,7.82,0,0,1-1,4.83,11,11,0,0,1-3.88,3.56c-2.52,1.49-5.84,3.35-5.84,3.35s-2.77-2.12-5.27-3.66a11,11,0,0,1-3.8-3.64A7.79,7.79,0,0,1,295.6,97.27Z" style="fill:#6C3EB4"></path></g><g id="freepik--Arrow--inject-4"><path d="M130.22,146.7s4.27,28.48,4.81,28.12,7.83-7.12,7.83-7.12l11.92,12.1,7.66-7.65-11.93-11.92,7.48-7.12Z" style="fill:#263238"></path><path d="M128.3,148.12a28.22,28.22,0,0,1-5.38,1,28.78,28.78,0,0,1-5.44.48,29.18,29.18,0,0,1,5.37-1A29.94,29.94,0,0,1,128.3,148.12Z" style="fill:#263238"></path><path d="M127.45,144.79a22.37,22.37,0,0,1-4.32-1.93,21.9,21.9,0,0,1-4.08-2.4,21.65,21.65,0,0,1,4.32,1.93A21.9,21.9,0,0,1,127.45,144.79Z" style="fill:#263238"></path><path d="M130.37,143.83a38.21,38.21,0,0,1-2.68-5.59,35.86,35.86,0,0,1-2.2-5.8,37.58,37.58,0,0,1,2.68,5.59A38.29,38.29,0,0,1,130.37,143.83Z" style="fill:#263238"></path><path d="M134.83,136.73a13.94,13.94,0,0,1-.59,3.7,13.56,13.56,0,0,1-1.09,3.59,13.66,13.66,0,0,1,.58-3.7A13.78,13.78,0,0,1,134.83,136.73Z" style="fill:#263238"></path></g></svg>